<?xml version="1.0" encoding="utf-8"?>
<!-- Generator: Adobe Illustrator 26.3.1, SVG Export Plug-In . SVG Version: 6.00 Build 0)  -->
<svg version="1.1" id="레이어_1" xmlns="http://www.w3.org/2000/svg" xmlns:xlink="http://www.w3.org/1999/xlink" x="0px"
	 y="0px" viewBox="0 0 295.3 59.9" style="enable-background:new 0 0 295.3 59.9;" xml:space="preserve">
<style type="text/css">
	.st0{fill:#0054A7;}
	.st1{fill:#FFFFFF;}
	.st2{fill:#00B2BC;}
	.st3{fill:#FDD000;}
</style>
<g>
	<g>
		<path class="st0" d="M7.9,45c5.6,4.8,12.5,6.1,19.3,7.5c11.3,2.4,22.2,0.8,33-2.5C76.1,45.2,79,25.8,68,15.2c0,0-6-6-20.4-6.4
			c-11.1-0.3-21.9,0.7-32.4,4.3C4.1,16.9-2.6,26.4,1,35.9C3.1,41.6,7.9,45,7.9,45"/>
	</g>
	<g>
		<path class="st1" d="M53.6,36.9c-0.1-0.3-0.4-0.4-0.7-0.4c-0.8,0.1-1.8-0.2-2.4-0.8c-0.7-0.6-1-1.5-1.1-2.4c0-0.3-0.2-0.5-0.5-0.5
			c-0.3,0-0.5,0.2-0.5,0.5c0,1.1,0.5,2.1,1.2,2.8c-0.1,0-0.2,0.1-0.3,0.2c-2.5,3.7-7,4.9-11.2,4.6c-3.9-0.3-8-1.5-10.6-4.6
			c0.6-0.7,1.1-1.4,1.5-2.3c0.1-0.3,0.1-0.6-0.2-0.7c-0.2-0.1-0.6-0.1-0.7,0.2c-0.9,1.9-2.4,3.5-4.3,4.4c-0.3,0.1-0.3,0.5-0.2,0.7
			c0.2,0.3,0.5,0.3,0.7,0.2c0.9-0.4,1.7-1,2.5-1.7c2.8,3.4,7.5,4.7,11.7,4.9c4.5,0.2,9.1-1.3,11.7-5.2c0,0,0-0.1,0-0.1
			c0.9,0.6,1.9,0.8,3,0.7C53.5,37.5,53.6,37.1,53.6,36.9"/>
	</g>
	<g>
		<path class="st1" d="M31.8,22.9c0,1.2-0.1,2.3,0.1,3.5c0.1,0.4,0.6,0.5,0.9,0.2c1.1-1,1.6-2.7,1.1-4.1c-0.2-0.5-0.8-0.5-1,0
			c-0.8,2.1-1,4.3-0.7,6.5c0,0.3,0.4,0.4,0.7,0.4c1.1-0.2,1.5-1.4,1.6-2.3c0.2-1.4,0.1-2.8-0.1-4.2c-0.1-0.3-0.5-0.5-0.8-0.3
			c-0.7,0.5-1.3,1.2-1.6,1.9c-0.3,0.7-0.6,1.6-0.4,2.4c0.3,0.9,1.2,1.3,2,0.7c0.7-0.5,1.1-1.5,1.3-2.3c0.3-1,0.3-2,0.1-3
			c0-0.2-0.3-0.4-0.5-0.4c-1.3,0-1.9,1.4-2.1,2.5c-0.2,1.3,0,2.6,0.6,3.8c0.3,0.6,1.2,0.1,0.9-0.5c-0.4-0.9-0.6-1.9-0.5-2.8
			c0.1-0.6,0.3-2,1.1-1.9c-0.2-0.1-0.3-0.3-0.5-0.4c0.2,0.8,0.1,1.6-0.1,2.4c-0.1,0.4-0.3,0.7-0.5,1.1c-0.1,0.2-0.4,0.8-0.7,0.8
			c-0.2,0-0.2-0.4-0.2-0.5c0-0.4,0.1-0.7,0.2-1.1c0.2-0.7,0.7-1.4,1.3-1.8c-0.3-0.1-0.5-0.2-0.8-0.3c0.2,1.1,0.2,2.3,0.1,3.5
			c-0.1,0.6-0.1,1.7-0.9,1.8c0.2,0.1,0.4,0.2,0.7,0.4c-0.3-2,0-4,0.7-5.9h-1c0.4,1.1,0,2.3-0.8,3c0.3,0.1,0.6,0.2,0.9,0.2
			c-0.2-1.1-0.1-2.2-0.1-3.2C32.9,22.2,31.8,22.2,31.8,22.9"/>
	</g>
	<g>
		<path class="st1" d="M43.3,22.9c0,1.2-0.1,2.3,0.1,3.5c0.1,0.4,0.6,0.5,0.9,0.2c1.1-1,1.6-2.7,1.1-4.1c-0.2-0.5-0.8-0.5-1,0
			c-0.8,2.1-1,4.3-0.7,6.5c0,0.3,0.4,0.4,0.7,0.4c1.1-0.2,1.5-1.4,1.6-2.3c0.2-1.4,0.1-2.8-0.1-4.2c-0.1-0.3-0.5-0.5-0.8-0.3
			c-0.7,0.5-1.3,1.2-1.6,1.9c-0.3,0.7-0.6,1.6-0.4,2.4c0.3,0.9,1.2,1.3,2,0.7c0.7-0.5,1.1-1.5,1.3-2.3c0.3-1,0.3-2,0.1-3
			c0-0.2-0.3-0.4-0.5-0.4c-1.3,0-1.9,1.4-2.1,2.5c-0.2,1.3,0,2.6,0.6,3.8c0.3,0.6,1.2,0.1,0.9-0.5c-0.4-0.9-0.6-1.9-0.5-2.8
			c0.1-0.6,0.3-2,1.1-1.9c-0.2-0.1-0.3-0.3-0.5-0.4c0.2,0.8,0.1,1.6-0.1,2.4c-0.1,0.4-0.3,0.7-0.5,1.1c-0.1,0.2-0.4,0.8-0.7,0.8
			c-0.2,0-0.2-0.4-0.2-0.5c0-0.4,0.1-0.7,0.2-1.1c0.2-0.7,0.7-1.4,1.3-1.8c-0.3-0.1-0.5-0.2-0.8-0.3c0.2,1.1,0.2,2.3,0.1,3.5
			c-0.1,0.6-0.1,1.7-0.9,1.8c0.2,0.1,0.4,0.2,0.7,0.4c-0.3-2,0-4,0.7-5.9h-1c0.4,1.1,0,2.3-0.8,3c0.3,0.1,0.6,0.2,0.9,0.2
			c-0.2-1.1-0.1-2.2-0.1-3.2C44.4,22.2,43.4,22.2,43.3,22.9"/>
	</g>
	<g>
		<path class="st1" d="M107.8,19.2c5.3-10.8,18.6-10.5,29.2-6.6c8.7,3.2,13.4,11.8,12.3,22.6c-0.5,4.6-3,8.8-7.1,11.7
			c-5,3.6-11.8,5-18,3.6c-8.8-1.9-14.9-5.8-17.8-11.2c-2.6-5-2.5-11.3,0.5-18.5C107.3,20.3,107.5,19.7,107.8,19.2"/>
	</g>
	<g>
		<path class="st2" d="M129.2,52.4c-1.7,0-3.5-0.2-5.1-0.6c-9.2-2-15.6-6.1-18.7-11.9c-2.8-5.4-2.7-12,0.5-19.6l0.7-1.7c0,0,0,0,0,0
			c5.7-11.6,19.7-11.4,30.9-7.3c9.3,3.4,14.4,12.6,13.2,24c-0.5,5-3.2,9.5-7.6,12.7C139.1,50.8,134.2,52.4,129.2,52.4z M109,19.8
			l-0.7,1.6c-2.8,6.8-3,12.6-0.6,17.3c2.6,5,8.5,8.7,16.8,10.5c5.9,1.3,12.2,0,16.9-3.4c3.8-2.7,6.1-6.6,6.5-10.8
			c1-10.1-3.4-18.3-11.5-21.2C126.5,10.1,113.9,9.8,109,19.8z"/>
	</g>
	<g>
		<path class="st2" d="M142.1,34.2c-1.2-1.6-2.9-2.3-4.9-2c-0.3,0.1-0.6,0.4-0.6,0.8c0.1,1.4-0.5,2.7-1.4,3.7
			c-0.9,1.1-2.2,1.5-3.6,1.8c-2.1,0.4-4.3,0-6.4-0.2c-4.8-0.5-8.6-3.2-10.5-7.8c-0.4-0.9-1.9-0.5-1.5,0.4c2.2,5.4,6.6,8.4,12.2,9
			c2.9,0.3,5.6,0.6,8.4-0.4c2.5-0.9,4.3-3.8,4.2-6.5c-0.2,0.3-0.4,0.5-0.6,0.8c1.4-0.3,2.5,0.4,3.4,1.6
			C141.6,36.1,142.7,35,142.1,34.2"/>
	</g>
	<g>
		<path class="st2" d="M135.1,37.4c-0.2,0.8,0.6,1.6,1.1,2c0.6,0.6,1.2,1.1,2,1.4c1.2,0.5,2.7,0.7,3.7-0.4c0.6-0.6,1-1.6,1.2-2.4
			c0.3-1.3-0.1-2.6-0.8-3.6c-0.2-0.3-0.7-0.5-1.1-0.3c-0.3,0.2-0.5,0.7-0.3,1.1c0.3,0.4,0.5,0.8,0.6,1.3c0,0.1,0,0.2,0.1,0.3
			c0,0,0,0.2,0,0.1c0-0.1,0,0,0,0c0,0.2,0,0.4,0,0.6c0-0.2,0,0,0,0.1c0,0.1,0,0.1-0.1,0.2c0,0.1,0,0.2-0.1,0.2c0,0.1-0.1,0.3,0,0.1
			c-0.1,0.3-0.2,0.5-0.4,0.8c-0.2,0.4-0.4,0.7-0.8,0.8c-0.4,0.1-0.8,0.1-1.2-0.1c-0.3-0.1-0.7-0.3-1-0.5c0,0-0.2-0.1-0.1,0
			c0.1,0.1-0.1,0-0.1-0.1c-0.1-0.1-0.2-0.2-0.4-0.3c-0.3-0.2-0.5-0.5-0.8-0.8c-0.1-0.1-0.1-0.1-0.1-0.2c0.1,0.1,0,0,0,0
			c0,0-0.1-0.2-0.1-0.1c0,0.1,0,0.1,0,0c0,0.1,0,0.3,0,0.3c0.1-0.4-0.1-0.9-0.5-1C135.6,36.7,135.2,37,135.1,37.4"/>
	</g>
	<g>
		<path class="st2" d="M137.3,35.2c0.1,0.1,0.1,0.2,0.2,0.2c0,0,0.1,0.1,0.1,0.1c0,0.1-0.1-0.1,0,0c0,0,0,0,0,0.1
			c0.1,0.2,0.2,0.3,0.3,0.5c0.1,0.2,0.2,0.3,0.3,0.5c0,0.1,0.1,0.2,0.1,0.3c0,0,0,0.1,0.1,0.1c0,0,0,0.1,0,0c0-0.1,0,0,0,0
			c0.1,0.1,0.1,0.2,0.2,0.3c0.1,0.1,0.3,0.1,0.4,0.1c0.2-0.1,0.5-0.4,0.4-0.7c-0.4-0.9-0.8-1.7-1.5-2.4c-0.2-0.2-0.5-0.2-0.7,0
			C137.1,34.7,137.2,35,137.3,35.2"/>
	</g>
	<g>
		<path class="st2" d="M128.6,25.4c0.2-1,1-1.6,2.1-1.3c1.6,0.3,3.5,1.6,4.5,2.6c1.2,1.2-0.1,3.3-1.5,2.3c-0.9-0.7-1.9-1.2-3.2-1.4
			C129.4,27.7,128.4,26.7,128.6,25.4 M122.5,24.8c-0.1,1.2-1.1,2-2.2,1.9c-1.2-0.1-1.9-1.2-1.8-2.4c0.1-1.2,1.1-2.1,2.3-2
			C121.9,22.5,122.7,23.5,122.5,24.8"/>
	</g>
	<g>
		<path class="st1" d="M84.9,1.4c8.6-0.4,12.3,3.2,19.1,16.7c0,0,4.6,10.5,2.2,23.1c-1,5.3-2.7,7.9-4.5,10.3
			c-7.8,10.6-22.8,8.3-29.2-1.2c-4.4-6.6-9.8-24.9-3.6-38.6C72.2,4.7,78,1.7,84.9,1.4"/>
	</g>
	<g>
		<path class="st3" d="M88,59.9c-0.1,0-0.3,0-0.4,0c-6.5-0.1-12.7-3.5-16.2-8.7c-4.4-6.5-10.2-25.5-3.7-39.9
			c3.2-7,8.9-10.8,17.1-11.2l0,0c9.6-0.5,13.7,4.1,20.4,17.4c0.2,0.5,4.8,11.1,2.4,24c-1,5.5-2.7,8.2-4.7,10.9
			C99.2,57.2,94,59.9,88,59.9z M86.2,2.7c-0.4,0-0.8,0-1.2,0l0,0c-7.1,0.4-12,3.6-14.7,9.6c-6.1,13.4-0.6,31.1,3.5,37.2
			c3.1,4.5,8.4,7.4,14,7.6c5.2,0.1,9.8-2.2,13-6.4c1.8-2.5,3.3-4.8,4.2-9.8c2.2-12-2.1-22.2-2.2-22.3C96.4,6.1,93.1,2.7,86.2,2.7z
			 M84.9,1.4L84.9,1.4L84.9,1.4z"/>
	</g>
	<g>
		<path class="st3" d="M79,16.1c5.5,1.1,10.8,2.9,16.1,4.7c1.3,0.4,1.8-1.6,0.6-2c-5.3-1.8-10.6-3.6-16.1-4.7
			C78.2,13.8,77.6,15.8,79,16.1"/>
	</g>
	<g>
		<path class="st3" d="M90.4,11.5c-3.2,2.9-6.6,5.6-10.1,8.1c-0.5,0.3-0.7,0.9-0.4,1.4c0.3,0.5,1,0.7,1.4,0.4
			C85,18.9,88.6,16,91.9,13C92.9,12.1,91.4,10.6,90.4,11.5"/>
	</g>
	<g>
		<path class="st3" d="M83.5,29.8c1.8-0.4,3.5-0.9,5.3-1.2c0.9-0.2,1.7-0.4,2.6-0.6c0.5-0.1,1.1-0.3,1.3,0.2
			c0.2,0.6-0.1,1.3-0.5,1.8c-0.4,0.6-0.9,1.2-1.5,1.7c-0.5,0.4-1.1,0.8-1.8,1.1c-0.7,0.3-1.2,0.3-1.8-0.1c-1.3-1-2-2.7-2.6-4.2
			c-0.2-0.5-1-0.6-1.4-0.4c-0.5,0.3-0.6,0.9-0.4,1.4c0.8,1.8,1.6,3.7,3.2,4.9c0.9,0.7,1.9,0.9,3,0.6c0.9-0.2,1.8-0.7,2.6-1.3
			c1.6-1.1,3.3-3,3.3-5.1c0-1-0.5-2-1.3-2.5c-1-0.6-2.1-0.3-3.2-0.1c-2.5,0.5-5,1.1-7.5,1.7C81.6,28.1,82.1,30.2,83.5,29.8"/>
	</g>
	<g>
		<path class="st0" d="M284,57.3c-1.9,0-3.9,0-5.8,0c-1.6,0-3.8-0.4-3.9-3.4c0-0.9,0.1-2,0.8-2.8c0.8-0.8,2-0.9,3-1
			c1.8,0,3.7,0,5.5,0l3.7,0c0.9,0,1.6,0,2.2-0.2v-1c-0.6-0.1-1.6-0.1-3-0.1c-2.7,0-5,0-7.5,0l-3.3,0c-0.8,0-1.5-0.7-1.5-1.5
			c0-0.8,0.7-1.5,1.5-1.5l3.3,0c2.5,0,4.8,0,7.5,0c3,0,4.5,0.1,5.4,0.9c0.3,0.3,0.5,0.8,0.5,1.3v2.6c0,0.4-0.2,0.9-0.6,1.1
			c-1.6,1.2-3.2,1.2-4.6,1.2l-3.6,0c-1.8,0-3.7,0-5.5,0c-0.6,0-0.9,0.1-1,0.1c0,0,0,0.2,0,0.7c0,0.3,0,0.4,0,0.4c0,0,0.3,0,0.9,0
			c3.2,0,6.4,0,9.7,0l3.9,0c0.8,0,1.5,0.7,1.5,1.5s-0.7,1.5-1.5,1.5l-3.9,0C286.6,57.3,285.3,57.3,284,57.3z M264.1,57.3
			c-0.1,0-0.2,0-0.3,0c-0.8-0.2-1.3-0.9-1.2-1.7c0.3-1.3,0.4-3.2,0.3-4.3c-0.3,0-0.6,0-0.8,0h-12.6c-0.8,0-1.5-0.7-1.5-1.5
			s0.7-1.5,1.5-1.5h12.6c0.9,0,3.1,0,3.6,1.9c0.4,1.8,0.1,4.6-0.2,5.9C265.4,56.8,264.7,57.3,264.1,57.3z M183.9,56.3
			c-0.8,0-1.5-0.7-1.5-1.5v-5.6c0-0.6,0-1.1-0.1-1.7c0-0.4,0-0.7,0-1.1c-0.7-0.1-1.3-0.7-1.3-1.5c0-0.8,0.6-1.5,1.4-1.5
			c0-0.1,0-0.2,0.1-0.3c0.2-1,0.1-2.1,0-3.2c-0.1-0.7-0.1-1.5-0.1-2.2c0-1.3,0-2.6,0-3.9l0-1.6c0-0.8,0.7-1.5,1.5-1.5
			c0.8,0,1.5,0.7,1.5,1.5l0,1.6c0,1.3,0,2.6,0,3.9c0,0.6,0.1,1.3,0.1,1.9c0.1,1.2,0.2,2.4,0,3.8h1.9c0.8,0,1.5,0.7,1.5,1.5
			c0,0.8-0.7,1.5-1.5,1.5h-2.1c0,0.3,0,0.6,0,1c0,0.6,0.1,1.2,0.1,1.8v5.6C185.4,55.6,184.7,56.3,183.9,56.3z M203.6,55.5
			c-1.8,0-3.7,0-5.5,0c-2.7,0-3.8-1-3.9-3.7c0-0.6,0-1.3,0-2l0-0.8c0-0.8,0.7-1.5,1.5-1.5c0.8,0,1.5,0.7,1.5,1.5l0,0.8
			c0,0.6,0,1.3,0,1.9c0,0.5,0,0.7,0.1,0.8c0,0,0.3,0,0.9,0c3.1,0,6.1,0,9.2,0l3.7,0c0.8,0,1.5,0.7,1.5,1.5c0,0.8-0.7,1.5-1.5,1.5
			l-3.7,0C206.1,55.5,204.8,55.5,203.6,55.5z M197.2,52.6L197.2,52.6L197.2,52.6z M227.5,53C227.5,53,227.4,53,227.5,53
			c-1.8,0-3.5,0-5.1,0l-2.2,0c-0.8,0-1.5-0.7-1.5-1.5c0-0.8,0.7-1.5,1.5-1.5l2.2,0c1.7,0,3.4,0,5.1,0c0,0,0,0,0,0
			c0.4,0,0.8-0.1,1.3-0.2c0.1,0,0.1,0,0.2-0.1v-3.9c0-0.8,0.7-1.5,1.5-1.5c0.8,0,1.5,0.7,1.5,1.5v3.8c0.2,0,0.4,0.1,0.5,0.1
			c0.5,0.1,1,0.2,1.4,0.2c1.6,0,3.3,0,4.9,0l2.1,0c0.8,0,1.5,0.7,1.5,1.5c0,0.8-0.7,1.5-1.5,1.5l-2.1,0c-1.6,0-3.2,0-4.8,0
			c-0.8,0-1.5-0.2-2.1-0.3c-0.9-0.2-1.4-0.2-2.3,0C228.9,52.8,228.2,53,227.5,53z M167,49.7c-0.1,0-0.2,0-0.3,0
			c-0.8,0-1.4-0.7-1.4-1.5c0-0.8,0.7-1.4,1.5-1.4c0.8,0,1.5-0.1,2.3-0.2c-0.4-1.3-0.8-2.7-1.1-4c-0.2-1-0.5-2-0.8-3
			c0-0.1-0.1-0.3-0.1-0.4c0,0,0,0,0,0c-0.5-0.4-0.8-1.1-0.5-1.7c0.3-0.7,1.2-1.1,1.9-0.8c1.2,0.5,1.4,1.5,1.5,1.9
			c0.3,1.2,0.6,2.3,0.8,3.3c0.3,1.4,0.6,2.7,1.1,4c0.2,0,0.4,0,0.5,0l2.3-8.2c0.2-0.8,1-1.2,1.8-1c0.8,0.2,1.2,1,1,1.8l-2.3,8
			c0.8,0.2,1.6,0.2,2.6,0.2c0.8,0,1.5,0.7,1.5,1.5c0,0.8-0.7,1.5-1.5,1.5c0,0,0,0,0,0c-1.6,0-3.1-0.1-4.5-0.7
			c-0.7-0.3-1.8-0.3-2.5,0C169.5,49.5,168.3,49.7,167,49.7z M264,47.3c0,0-0.1,0-0.1,0c-0.8-0.1-1.4-0.8-1.3-1.6
			c0.1-0.9,0.1-2.1,0.1-3.3c-0.7-0.1-1.3-0.7-1.3-1.5c0-0.7,0.6-1.4,1.3-1.4c0-0.3,0-0.6,0-0.8c-0.7-0.1-1.3-0.7-1.3-1.5
			c0-0.7,0.6-1.4,1.3-1.5c0-0.3,0-0.6,0-0.9c0-0.9-0.1-1.7-0.1-2.6c0-0.8,0.7-1.5,1.5-1.5c0,0,0,0,0,0c0.8,0,1.5,0.7,1.5,1.5
			c0,0.8,0,1.6,0.1,2.5c0,0.3,0,0.7,0,1h2.1c0.8,0,1.5,0.7,1.5,1.5c0,0.8-0.7,1.5-1.5,1.5h-2.1c0,0.3,0,0.5,0,0.8h2.1
			c0.8,0,1.5,0.7,1.5,1.5c0,0.8-0.7,1.5-1.5,1.5h-2.1c0,1.3,0,2.6-0.1,3.6C265.4,46.8,264.7,47.3,264,47.3z M211,47.3
			c-0.8,0-1.5-0.6-1.5-1.4c0-1,0.1-2,0.1-3.1c0.1-1.3,0.2-2.5,0.1-3.6c0-0.2,0-0.3,0-0.5h-0.3c-0.8,0-1.5-0.7-1.5-1.5
			c0-0.8,0.7-1.5,1.5-1.5h0.2c0,0,0,0,0,0c0-1.1,0-2.2-0.1-3.3c-0.1-0.8,0.6-1.5,1.4-1.6c0.8-0.1,1.5,0.6,1.6,1.4
			c0.1,1.2,0.1,2.3,0.1,3.5c0,0,0,0.1,0,0.1h1.6c0.8,0,1.5,0.7,1.5,1.5c0,0.8-0.7,1.5-1.5,1.5h-1.6c0,0.1,0,0.2,0,0.3
			c0.1,1.3,0,2.7-0.1,4c-0.1,0.9-0.1,1.9-0.1,2.8C212.5,46.6,211.8,47.3,211,47.3C211,47.3,211,47.3,211,47.3z M221.4,45
			c-0.3,0-0.7-0.1-0.9-0.3c-0.6-0.5-0.7-1.4-0.2-2.1l0.2-0.2c0.3-0.4,0.7-1,1.6-1.4c0.6-0.3,1.2-0.7,1.8-1.1
			c0.4-0.2,0.7-0.5,1.1-0.7c1-0.6,1.8-1.5,2.7-2.5c0.4-0.4,0.8-0.9,1.2-1.3c-0.1-0.1-0.2-0.1-0.3-0.2c-0.5-0.2-0.9-0.4-1.3-0.4
			c-1.2,0.1-2.4,0-3.6,0l-1.5,0c-0.8,0-1.5-0.7-1.5-1.5c0-0.8,0.7-1.5,1.5-1.5l1.5,0c1.1,0,2.3,0,3.4,0c1.1,0,2,0.4,2.7,0.7
			c0.4,0.2,0.8,0.4,1,0.4c0.2,0,0.6-0.2,1-0.4c0.7-0.3,1.6-0.7,2.7-0.7c1.1,0.1,2.3,0,3.4,0l1.5,0c0.8,0,1.5,0.7,1.5,1.5
			c0,0.8-0.7,1.5-1.5,1.5l-1.5,0c-1.2,0-2.4,0-3.6,0c-0.3,0-0.8,0.2-1.3,0.4c-0.1,0-0.2,0.1-0.3,0.1c0.3,0.3,0.6,0.7,0.9,1
			c1.4,1.6,2.8,3.1,4.6,4.1c0.5,0.2,0.9,0.4,1.4,0.6l0.7,0.3c0.7,0.3,1.1,1.2,0.7,1.9c-0.3,0.7-1.2,1.1-1.9,0.7l-0.6-0.3
			c-0.5-0.2-1-0.5-1.5-0.7c-2.3-1.2-3.9-3-5.4-4.7c-0.2-0.2-0.4-0.5-0.6-0.7c-0.3,0.3-0.6,0.7-0.9,1c-1,1.1-2,2.2-3.4,3.1
			c-0.3,0.2-0.6,0.4-1,0.6c-0.7,0.5-1.5,1-2.3,1.4c-0.1,0-0.1,0.1-0.3,0.4c-0.1,0.1-0.2,0.3-0.3,0.4C222.2,44.9,221.8,45,221.4,45z
			 M199.7,45c-0.9,0-1.9,0-2.8,0c-1.6,0-3-0.7-3.8-1.9c-0.8-1.2-0.9-2.7-0.2-4.1c0.5-1.2,1.7-1.9,3.4-1.9c0,0,0,0,0,0l1,0
			c1.5,0,3,0,4.5,0c0.4,0,0.7,0,0.8-0.1c0-0.1,0-0.3,0-0.5l0-0.2c0-0.3,0-1-0.1-1.4c-0.2,0-0.6-0.1-1.4,0c-1.6,0-3.3,0-5,0l-2.2,0
			c-0.8,0-1.5-0.7-1.5-1.5c0-0.8,0.7-1.5,1.5-1.5l2.2,0c1.6,0,3.3,0,4.9,0c1.5,0,2.7,0,3.5,0.8c0.8,0.8,0.9,2,0.9,3.5l0,0.2
			c0,2.1-0.6,3.4-3.7,3.5c-1.5,0-3,0-4.5,0l-1,0c0,0,0,0,0,0c-0.6,0-0.7,0.1-0.7,0.1c-0.2,0.5-0.2,1,0,1.4c0.2,0.4,0.8,0.6,1.4,0.6
			c1.7,0,3.5,0,5.2,0l2.4,0c0.8,0,1.5,0.7,1.5,1.5c0,0.8-0.7,1.5-1.5,1.5l-2.4,0C201.2,45,200.4,45,199.7,45z M253.8,44.6
			c-1.7,0-3.5-0.5-4.7-1.4c-2.1-1.5-2.6-4.5-1.3-7.3c1.2-2.5,3.9-4.8,7.2-4c1.8,0.4,3.2,1.6,4,3.3c1,2.2,0.9,5,0.2,6.5
			c-0.7,1.4-1.9,2.4-3.6,2.8C255.1,44.6,254.5,44.6,253.8,44.6z M253.7,34.6c-1.4,0-2.7,1.2-3.3,2.5c-0.5,1.2-0.8,2.8,0.4,3.7
			c0.9,0.6,2.6,1.1,4.1,0.7c0.8-0.2,1.4-0.6,1.6-1.2c0.3-0.6,0.5-2.5-0.2-4c-0.4-0.9-1.1-1.5-2-1.7c0,0,0,0,0,0
			C254.1,34.7,253.9,34.6,253.7,34.6z M279,44.3c-0.8,0-1.6,0-2.3-0.1c-1.3-0.1-2.5-0.1-3.6,0c-0.8,0.1-1.5-0.5-1.6-1.3
			c-0.1-0.8,0.5-1.5,1.3-1.6c1.4-0.1,2.7-0.1,4,0c1.8,0.1,3.5,0.2,5.1-0.2v-1.7c-0.4-0.1-0.9-0.1-1.6-0.1c-0.4,0-0.7,0-1.1,0
			c-2.6-0.1-3.8-1.4-3.8-4l0-0.4c0-0.3,0-0.5,0-0.8c-0.1-2,1.2-2.7,2.2-3c0.6-0.2,1.3-0.3,2.1-0.3l11.1,0c0.8,0,1.5,0.7,1.5,1.5
			s-0.7,1.5-1.5,1.5l-11.1,0c-0.4,0-0.8,0.1-1.4,0.2c0,0,0,0,0,0c0,0.4,0,0.7,0,1l0,0.4c0,0.8,0.1,1,0.1,1l0,0c0,0,0.2,0.1,0.9,0.1
			c0.3,0,0.6,0,0.8,0c0.5,0,1.1,0,1.7,0.1c0.2-0.6,0.7-1.1,1.4-1.1c0.7,0,1.3,0.5,1.4,1.2c1.3-0.3,2.6-0.2,3.8-0.2
			c0.8,0,1.6,0.1,2.3,0c0.8-0.1,1.5,0.5,1.6,1.3c0.1,0.8-0.5,1.5-1.3,1.6c-0.9,0.1-1.9,0-2.8,0c-1.4-0.1-2.6-0.1-3.7,0.3v1.6
			c0.5,0.2,1.1,0.2,1.7,0.2c1.7,0,3.5,0,5.2,0l2,0c0.8,0,1.5,0.7,1.5,1.5c0,0.8-0.7,1.5-1.5,1.5l-2,0c-1.7,0-3.5,0-5.2,0
			c-1.1,0-2-0.1-2.9-0.4c-0.1,0-0.2-0.1-0.3-0.1C281.9,44.2,280.4,44.3,279,44.3z M178,34.9h-11.3c-0.8,0-1.5-0.7-1.5-1.5
			c0-0.8,0.7-1.5,1.5-1.5H178c0.8,0,1.5,0.7,1.5,1.5C179.4,34.2,178.8,34.9,178,34.9z"/>
	</g>
	<g>
		<path class="st0" d="M210.6,23c-1.4,0-2.7-0.1-4-0.3c-0.2,0-0.5-0.2-0.6-0.4c-0.5-1-0.4-1.9-0.4-2.7c0-0.3,0-0.6,0-0.8
			c0-0.4,0.3-0.8,0.7-0.8c0.5,0,0.8,0.3,0.8,0.7c0,0.3,0,0.7,0,1c0,0.6,0,1.1,0.1,1.6c1.7,0.3,3.6,0.2,5.5,0.2c1.2,0,2.5-0.1,3.7,0
			c0.4,0,0.7,0.4,0.7,0.8c0,0.4-0.3,0.7-0.8,0.7c0,0,0,0,0,0c-1.2,0-2.4,0-3.6,0C212.1,23,211.4,23,210.6,23z M272.5,22.9
			c-0.4,0-0.8-0.3-0.8-0.8V6.6c0-0.4,0.3-0.8,0.8-0.8c0.4,0,0.8,0.3,0.8,0.8v15.6C273.2,22.6,272.9,22.9,272.5,22.9z M197,22.9
			c-0.4,0-0.8-0.3-0.8-0.8c0-0.8,0-1.5,0-2.3c0-1.8-0.1-3.6,0.1-5.4c0.1-1.1,0.1-2.1,0-3.2h-0.6c-0.4,0-0.8-0.3-0.8-0.8
			c0-0.4,0.3-0.8,0.8-0.8h0.5c-0.1-1-0.1-2,0-3c0-0.4,0.4-0.7,0.8-0.7c0.4,0,0.7,0.4,0.7,0.8c-0.1,0.9-0.1,1.8,0,2.8h2.6
			c0.4,0,0.8,0.3,0.8,0.8c0,0.4-0.3,0.8-0.8,0.8h-2.5c0.1,1.1,0.1,2.2,0,3.3c-0.2,1.7-0.1,3.5-0.1,5.2c0,0.8,0,1.6,0,2.3
			C197.7,22.6,197.4,22.9,197,22.9z M179.2,22.9c-0.4,0-0.8-0.3-0.8-0.8V6.6c0-0.4,0.3-0.8,0.8-0.8c0.4,0,0.8,0.3,0.8,0.8v15.6
			C180,22.6,179.7,22.9,179.2,22.9z M250.6,22.1c-0.4,0-0.8-0.3-0.8-0.8v-4.1h-3.5v4.1c0,0.4-0.3,0.8-0.8,0.8
			c-0.4,0-0.8-0.3-0.8-0.8v-4.1h-3.7c-0.4,0-0.8-0.3-0.8-0.8c0-0.4,0.3-0.8,0.8-0.8h3.7v-0.1c0-0.4,0.3-0.8,0.8-0.8
			c0.4,0,0.8,0.3,0.8,0.8v0.1h3.5v-0.1c0-0.4,0.3-0.8,0.8-0.8c0.4,0,0.8,0.3,0.8,0.8v0.1h3.7c0.4,0,0.8,0.3,0.8,0.8
			c0,0.4-0.3,0.8-0.8,0.8h-3.7v4.1C251.3,21.8,251,22.1,250.6,22.1z M277.8,21.1c-0.4,0-0.7-0.3-0.7-0.7c0-0.4,0.3-0.8,0.7-0.8
			c1.4-0.1,2.8-0.1,4.2-0.1c0.8,0,1.6,0,2.4,0v-3.7c-0.8,0-1.6-0.2-2.3-0.3c-1.5-0.3-2.5-1.3-2.8-2.6c-0.6-2.9,0.3-4.6,3.2-5.8
			c0.1-0.1,0.3-0.1,0.4-0.1c0,0,0.1,0,0.1,0l1.4,0c1,0,2.1,0,3.1,0c2.2,0.1,3.8,1.5,4,3.5c0.2,3.1-0.7,4.6-3.2,5
			c-0.8,0.1-1.5,0.2-2.3,0.2v3.6c1.2,0,2.5,0,3.7,0.1c1,0.1,1.9,0.1,2.9,0.1c0.4,0,0.7,0.3,0.7,0.8c0,0.4-0.3,0.7-0.8,0.7
			c0,0,0,0,0,0c-1,0-2-0.1-3-0.1c-1.4-0.1-2.9-0.2-4.3-0.1c-1.1,0-2.1,0.1-3.2,0.1C280.6,21,279.2,21,277.8,21.1
			C277.8,21.1,277.8,21.1,277.8,21.1z M282.9,8.5c-2.1,0.9-2.6,1.9-2.2,4.1c0.1,0.3,0.2,1.1,1.7,1.4c1.7,0.4,3.6,0.4,5.5,0.1
			c1.2-0.2,2.2-0.6,1.9-3.4c-0.1-1.3-1.1-2.1-2.5-2.1c-1,0-2,0-3,0L282.9,8.5C282.9,8.5,282.9,8.5,282.9,8.5z M236.3,20.9h-14.3
			c-0.4,0-0.8-0.3-0.8-0.8c0-0.4,0.3-0.8,0.8-0.8h14.3c0.4,0,0.8,0.3,0.8,0.8C237,20.6,236.7,20.9,236.3,20.9z M183.2,20.3
			c-0.1,0-0.1,0-0.2,0c-0.4-0.1-0.6-0.5-0.5-0.9c0.4-1.3,1.4-2.2,2.3-2.9c1.3-1,2.2-2,2.5-2.9c0.4-1.3,0.4-2.9,0-4.4c0,0,0,0,0,0
			C187.1,9,187,9,187,9c-0.5,0-1,0-1.6,0l-0.7,0c-0.4,0-0.8-0.3-0.8-0.8s0.3-0.8,0.8-0.8l0.7,0c0.5,0,1,0,1.5,0
			c0.5,0,0.9,0.2,1.3,0.4c0.1,0.1,0.4,0.2,0.4,0.2c1-0.6,2-0.6,3-0.5c0.3,0,0.6,0,0.9,0c0.4-0.1,0.8,0.3,0.8,0.7
			c0,0.4-0.3,0.8-0.7,0.8c-0.4,0-0.7,0-1.1,0c-0.8,0-1.5,0-2.2,0.4c0,0,0,0,0,0c-0.3,1.4-0.3,2.9,0,4.1c0.3,0.9,1.2,2,2.5,2.9
			c1,0.7,1.9,1.6,2.3,2.9c0.1,0.4-0.1,0.8-0.5,0.9c-0.4,0.1-0.8-0.1-0.9-0.5c-0.3-0.9-0.9-1.5-1.8-2.1c-0.7-0.5-1.9-1.5-2.6-2.7
			c-0.7,1.2-1.9,2.2-2.6,2.7c-0.9,0.6-1.5,1.2-1.8,2.1C183.8,20.1,183.5,20.3,183.2,20.3z M261.8,19.3c-1.9,0-2.4-1-2.4-1.9
			c0-2,0-4.1,0-6.2l0-2.4c0-0.3,0.2-0.6,0.5-0.7c1.7-0.5,3.3-0.4,4.9-0.4c0.8,0,1.5,0,2.3,0c0.5,0,0.8,0.3,0.8,0.7
			c0,0.4-0.3,0.8-0.7,0.8c-0.8,0-1.6,0-2.4,0c-1.3,0-2.6-0.1-3.9,0.2l0,1.9c0,2,0,4.1,0,6.1c0,0.2,0,0.4,0.9,0.4c0,0,0,0,0.1,0
			c1.3,0,2.6,0,3.9,0l1.6,0c0.4,0,0.8,0.3,0.8,0.8s-0.3,0.8-0.8,0.8l-1.6,0C264.5,19.3,263.2,19.3,261.8,19.3
			C261.9,19.3,261.9,19.3,261.8,19.3z M168.6,19.3c-1.9,0-2.4-1-2.4-1.9c0-2,0-4.1,0-6.2l0-2.4c0-0.3,0.2-0.6,0.5-0.7
			c1.7-0.5,3.3-0.4,4.9-0.4c0.8,0,1.5,0,2.3,0c0.5,0,0.8,0.3,0.8,0.7c0,0.4-0.3,0.8-0.7,0.8c-0.8,0-1.6,0-2.4,0
			c-1.3,0-2.6-0.1-3.9,0.2l0,1.9c0,2,0,4.1,0,6.1c0,0.2-0.1,0.4,0.9,0.4c1.3,0,2.6,0,3.9,0l1.6,0c0.4,0,0.8,0.3,0.8,0.8
			s-0.3,0.8-0.8,0.8l-1.6,0C171.2,19.3,169.9,19.3,168.6,19.3C168.6,19.3,168.6,19.3,168.6,19.3z M236.3,17c-0.1,0-0.1,0-0.2,0
			c-2.3-0.7-4-2.1-5-4.2c-0.5-1-1-2.1-2-2.7c-0.1,0.2-0.3,0.5-0.4,0.7c-0.9,1.4-1.7,2.8-2.7,4.1c-0.7,1-1.8,1.4-2.8,1.7
			c-0.3,0.1-0.6,0.2-0.9,0.4c-0.4,0.2-0.8,0-1-0.4c-0.2-0.4,0-0.8,0.4-1c0.3-0.2,0.7-0.3,1-0.4c0.9-0.3,1.6-0.6,2-1.2
			c0.9-1.3,1.8-2.7,2.7-4c0.4-0.6,0.7-1.2,1.1-1.7c0.2-0.3,0.7-0.4,1-0.2c0.3,0.2,0.4,0.5,0.3,0.8c1.4,0.8,2.1,2.2,2.6,3.4
			c0.8,1.7,2.1,2.8,4,3.4c0.4,0.1,0.6,0.5,0.5,0.9C236.9,16.8,236.6,17,236.3,17z M216.5,16.3c-0.4,0-0.8-0.3-0.8-0.8v-9
			c0-0.4,0.3-0.8,0.8-0.8c0.4,0,0.8,0.3,0.8,0.8v9C217.2,16,216.9,16.3,216.5,16.3z M208.1,14.7c-0.4,0-0.7,0-1,0
			c-1.1-0.1-2.7-0.2-3.4-1.9c-0.6-1.4-0.6-2.8,0-4c0.6-1.2,1.6-2.1,3-2.6c0.1,0,0.2,0,0.3,0c0,0,0,0,0.1,0c1.3-0.1,2.8,0,3.8,1.3
			c0.9,1,1,5,0.2,6.1C210.3,14.5,209.1,14.7,208.1,14.7z M207,7.5c-1,0.4-1.7,1-2,1.8c-0.4,0.8-0.4,1.8,0,2.8c0.3,0.7,0.9,0.9,1.9,1
			c1.5,0.1,2.3,0.1,2.9-0.7c0.4-0.6,0.3-3.7-0.1-4.2C209.2,7.5,208.4,7.5,207,7.5C207.1,7.5,207.1,7.5,207,7.5z M244.6,13.5
			c-0.8,0-1.4-0.2-1.9-0.7c-0.4-0.4-0.6-1-0.5-1.8c0-0.3,0-0.6,0.1-1l0.1-0.7c0-0.4,0.3-0.6,0.7-0.7c2.2-0.3,4.3-0.2,6.4-0.2
			c1.2,0,2.4,0,3.6,0c0,0,0,0,0,0c0.4,0,0.7,0.3,0.8,0.7c0,0.4-0.3,0.8-0.7,0.8c-1.2,0-2.4,0-3.6,0c-1.9,0-3.8-0.1-5.6,0.1l0,0.1
			c0,0.3-0.1,0.6-0.1,0.9c0,0.3,0,0.6,0.1,0.7c0.1,0.1,0.5,0.2,0.8,0.2c2,0,3.9,0,5.9,0l2.3,0c0.4,0,0.8,0.3,0.8,0.8
			c0,0.4-0.3,0.8-0.8,0.8l-2.3,0C248.5,13.5,246.6,13.5,244.6,13.5C244.6,13.5,244.6,13.5,244.6,13.5z M253,6.7h-10.2
			c-0.4,0-0.8-0.3-0.8-0.8c0-0.4,0.3-0.8,0.8-0.8H253c0.4,0,0.8,0.3,0.8,0.8C253.8,6.3,253.4,6.7,253,6.7z"/>
	</g>
</g>
</svg>
