<?xml version="1.0" encoding="utf-8"?>
<!-- Generator: Adobe Illustrator 27.0.0, SVG Export Plug-In . SVG Version: 6.00 Build 0)  -->
<svg version="1.1" id="레이어_1" xmlns="http://www.w3.org/2000/svg" xmlns:xlink="http://www.w3.org/1999/xlink" x="0px"
	 y="0px" viewBox="0 0 295.3 59.9" style="enable-background:new 0 0 295.3 59.9;" xml:space="preserve">
<style type="text/css">
	.st0{fill:#FFFFFF;}
</style>
<g>
	<path class="st0" d="M142.1,34.2c-1.2-1.6-2.9-2.3-4.9-2c-0.3,0.1-0.6,0.4-0.6,0.8c0.1,1.4-0.5,2.7-1.4,3.7
		c-0.9,1.1-2.2,1.5-3.6,1.8c-2.1,0.4-4.3,0-6.4-0.2c-4.8-0.5-8.6-3.2-10.5-7.8c-0.4-0.9-1.9-0.5-1.5,0.4c2.2,5.4,6.6,8.4,12.2,9
		c2.9,0.3,5.6,0.6,8.4-0.4c0.6-0.2,1.1-0.5,1.6-0.9c0.2,0.3,0.6,0.6,0.8,0.8c0.6,0.6,1.2,1.1,2,1.4c1.2,0.5,2.7,0.7,3.7-0.4
		c0.6-0.6,1-1.6,1.2-2.4c0.3-1.3-0.1-2.6-0.8-3.6C142.2,34.3,142.2,34.3,142.1,34.2z M141.6,36.9C141.6,36.9,141.6,36.9,141.6,36.9
		C141.6,36.9,141.6,36.9,141.6,36.9c0,0.2,0,0.4,0,0.6c0,0,0,0.1,0,0.1c0,0,0,0.1,0,0.1c0,0.1,0,0.1-0.1,0.2c0,0.1,0,0.2-0.1,0.2
		c0,0.1-0.1,0.3,0,0.1c-0.1,0.3-0.2,0.5-0.4,0.8c-0.2,0.4-0.4,0.7-0.8,0.8s-0.8,0.1-1.2-0.1c-0.3-0.1-0.7-0.3-1-0.5
		c0,0-0.2-0.1-0.1,0c0.1,0.1-0.1,0-0.1-0.1c-0.1-0.1-0.2-0.2-0.4-0.3c-0.3-0.2-0.5-0.5-0.8-0.8c-0.1-0.1-0.1-0.1-0.1-0.2
		c0,0-0.1-0.1-0.1-0.1c0,0,0,0,0,0c0.5-0.6,0.9-1.3,1.2-2.1c0,0,0,0.1,0,0c0,0,0,0,0,0c0,0,0,0,0,0l0,0c0,0,0,0,0,0.1
		c0.1,0.2,0.2,0.3,0.3,0.5c0.1,0.2,0.2,0.3,0.3,0.5c0,0.1,0.1,0.2,0.1,0.3c0,0,0,0.1,0.1,0.1c0.1,0.1,0.1,0.2,0.2,0.3
		c0.1,0.1,0.3,0.1,0.4,0.1c0.2-0.1,0.5-0.4,0.4-0.7c-0.4-0.9-0.8-1.7-1.5-2.4c0,0,0,0,0,0c0-0.2,0.1-0.4,0.1-0.6
		c1.1,0,2.1,0.6,2.8,1.7c0.1,0.1,0.2,0.2,0.3,0.2c0.2,0.3,0.3,0.6,0.4,0.9C141.5,36.6,141.5,36.7,141.6,36.9
		C141.6,36.8,141.6,36.8,141.6,36.9z"/>
	<path class="st0" d="M130.5,27.6c1.3,0.2,2.3,0.7,3.2,1.4c1.4,1,2.7-1.1,1.5-2.3c-1-1-2.9-2.3-4.5-2.6c-1.1-0.3-1.9,0.3-2.1,1.3
		C128.4,26.7,129.4,27.7,130.5,27.6z"/>
	<path class="st0" d="M120.3,26.7c1.1,0.1,2.1-0.7,2.2-1.9c0.2-1.3-0.6-2.3-1.7-2.5c-1.2-0.1-2.2,0.8-2.3,2
		C118.4,25.5,119.1,26.6,120.3,26.7z"/>
	<path class="st0" d="M137.5,11.3c-11.2-4.1-25.2-4.3-30.9,7.3l-0.6,1.3c0,0,0-0.1,0-0.1c-0.4-1.4-0.8-2.2-0.9-2.3
		C98.5,4.2,94.4-0.5,84.8,0c-8.1,0.4-13.9,4.2-17.1,11.2c-0.4,0.9-0.8,1.9-1.1,2.8c0,0,0,0.1,0,0.1c-2.5-1.7-8.5-5-19-5.3
		c-11.1-0.3-21.9,0.7-32.4,4.3C4.1,16.9-2.6,26.4,1,35.9C3.1,41.6,7.9,45,7.9,45c5.6,4.8,12.5,6.1,19.3,7.5
		c11.3,2.4,22.2,0.8,33-2.5c3.3-1,6.1-2.7,8.2-4.8c0,0,0,0,0.1-0.1c0,0,0,0.1,0,0.1c0.9,2.4,2,4.4,2.9,5.8c3.5,5.3,9.7,8.6,16.2,8.7
		c0.1,0,0.3,0,0.4,0c6,0,11.2-2.7,14.8-7.5c1.8-2.5,3.4-4.9,4.4-9.5c3.5,4.3,9.3,7.5,16.8,9.1c1.7,0.4,3.4,0.6,5.1,0.6
		c5,0,10-1.5,13.9-4.4c4.4-3.2,7.1-7.7,7.6-12.7C151.9,23.9,146.8,14.7,137.5,11.3z M43.3,24.8c0-0.7,0-1.3,0-2c0-0.6,0.9-0.7,1-0.1
		c0-0.1,0-0.1,0.1-0.2c0.1-0.3,0.4-0.4,0.6-0.3c0.3-0.2,0.6-0.4,1-0.4c0.2,0,0.5,0.2,0.5,0.4c0.2,1,0.2,2-0.1,3
		c-0.1,0.3-0.2,0.7-0.4,1c0,0.3,0,0.5-0.1,0.8c-0.1,0.9-0.5,2.1-1.6,2.3c-0.3,0-0.6-0.1-0.7-0.4c-0.1-0.5-0.1-1-0.1-1.5
		c-0.2-0.2-0.4-0.4-0.5-0.7C43,26.2,43.1,25.5,43.3,24.8z M31.8,24.8c0-0.7,0-1.3,0-2c0-0.6,0.9-0.7,1-0.1c0-0.1,0-0.1,0.1-0.2
		c0.1-0.3,0.4-0.4,0.6-0.3c0.3-0.2,0.6-0.4,1-0.4c0.2,0,0.5,0.2,0.5,0.4c0.2,1,0.2,2-0.1,3c-0.1,0.3-0.2,0.7-0.4,1
		c0,0.3,0,0.5-0.1,0.8c-0.1,0.9-0.5,2.1-1.6,2.3c-0.3,0-0.6-0.1-0.7-0.4c-0.1-0.5-0.1-1-0.1-1.5c-0.2-0.2-0.4-0.4-0.5-0.7
		C31.4,26.2,31.5,25.5,31.8,24.8z M53.2,37.5c-1.1,0.2-2.1-0.1-3-0.7v0.1c-2.6,3.8-7.2,5.4-11.7,5.2c-4.3-0.2-8.9-1.5-11.7-4.9
		c-0.7,0.7-1.6,1.3-2.5,1.7C24,39,23.7,39,23.6,38.7c-0.1-0.2-0.1-0.6,0.2-0.7c1.9-0.9,3.4-2.5,4.3-4.4c0.1-0.3,0.5-0.3,0.7-0.2
		c0.3,0.2,0.3,0.5,0.2,0.7c-0.4,0.8-0.9,1.6-1.5,2.3c2.5,3.1,6.7,4.3,10.6,4.6c4.3,0.3,8.7-1,11.2-4.6c0.1-0.1,0.2-0.1,0.3-0.2
		c-0.7-0.8-1.2-1.8-1.2-2.8c0-0.3,0.2-0.5,0.5-0.5c0.3,0,0.5,0.2,0.5,0.5c0,0.9,0.4,1.8,1.1,2.4c0.7,0.6,1.6,0.9,2.4,0.8
		c0.3,0,0.6,0.1,0.7,0.4C53.6,37.1,53.5,37.5,53.2,37.5z M105.1,39.4c-0.1,0.6-0.1,1.1-0.2,1.6c-0.9,5-2.4,7.3-4.2,9.8
		c-3.1,4.3-7.8,6.6-13,6.4c-5.6-0.1-11-3-14-7.6c-1-1.5-2.1-3.8-3.1-6.6c-2.6-7.2-4.4-17.8-1.7-27.1c0.4-1.2,0.8-2.5,1.3-3.6
		c2.7-6,7.7-9.3,14.7-9.6c0.4,0,0.8,0,1.2,0c6.9,0,10.2,3.4,16.6,15.9c0,0,0.9,2.2,1.7,5.6C105.3,28,106,33.4,105.1,39.4z M148,35
		c-0.4,4.2-2.7,8-6.5,10.8c-4.7,3.4-11,4.7-16.9,3.4c-8.1-1.8-14-5.4-16.7-10.2c0,0,0-0.1,0-0.1c0.7-5.5,0.1-10.6-0.7-14.5
		c0.3-1,0.8-2.2,1.2-3.1l0.7-1.6c4.9-10,17.5-9.6,27.5-6C144.6,16.8,149,24.9,148,35z"/>
	<path class="st0" d="M95.7,18.8c-2.5-0.9-5-1.7-7.6-2.5c1.3-1.1,2.6-2.1,3.8-3.2c1-0.9-0.5-2.4-1.5-1.5c-1.5,1.4-3.1,2.7-4.7,4
		c-2-0.6-4.1-1.1-6.1-1.5c-1.3-0.3-1.9,1.8-0.6,2c1.6,0.3,3.1,0.7,4.6,1.1c-1.1,0.8-2.2,1.7-3.3,2.5c-0.5,0.3-0.7,0.9-0.4,1.4
		s1,0.7,1.4,0.4c1.6-1.2,3.2-2.4,4.8-3.6c3,0.9,6,1.9,9,2.9C96.4,21.2,97,19.2,95.7,18.8z"/>
	<path class="st0" d="M93.6,26.2c-1-0.6-2.1-0.3-3.2-0.1c-2.5,0.5-5,1.1-7.5,1.7c-1.1,0.3-0.9,1.7-0.1,2c0.7,1.7,1.6,3.4,3.1,4.6
		c0.9,0.7,1.9,0.9,3,0.6c0.9-0.2,1.8-0.7,2.6-1.3c1.6-1.1,3.3-3,3.3-5.1C94.9,27.7,94.4,26.7,93.6,26.2z M92.2,30.1
		c-0.4,0.6-0.9,1.2-1.5,1.7c-0.5,0.4-1.1,0.8-1.8,1.1c-0.7,0.3-1.2,0.3-1.8-0.1c-1-0.8-1.6-2-2.2-3.2c1.3-0.3,2.5-0.6,3.8-0.9
		c0.9-0.2,1.7-0.4,2.6-0.6c0.5-0.1,1.1-0.3,1.3,0.2C92.9,28.9,92.6,29.6,92.2,30.1z"/>
	<path class="st0" d="M240.9,49.9h-2.1c-1.6,0-3.3,0-4.9,0c-0.4,0-0.9-0.1-1.4-0.2c-0.1,0-0.3-0.1-0.5-0.1v-3.8
		c0-0.8-0.7-1.5-1.5-1.5S229,45,229,45.8v3.9c-0.1,0.1-0.1,0.1-0.2,0.1c-0.5,0.1-0.9,0.2-1.3,0.2c-1.7,0-3.4,0-5.1,0h-2.2
		c-0.8,0-1.5,0.7-1.5,1.5c0,0.8,0.7,1.5,1.5,1.5h2.2c1.6,0,3.3,0,5.1,0c0,0,0,0,0,0c0.7,0,1.4-0.2,2.1-0.4c0.9-0.2,1.4-0.2,2.3,0
		c0.6,0.1,1.3,0.3,2.1,0.3c1.6,0,3.2,0,4.8,0h2.1c0.8,0,1.5-0.7,1.5-1.5S241.7,49.9,240.9,49.9z"/>
	<path class="st0" d="M187.4,43.4h-1.9c0.2-1.4,0.1-2.6,0-3.8c0-0.6-0.1-1.3-0.1-1.9c0-1.3,0-2.6,0-3.9v-1.6c0-0.8-0.7-1.5-1.5-1.5
		c-0.8,0-1.5,0.7-1.5,1.5v1.6c0,1.3,0,2.6,0,3.9c0,0.7,0,1.5,0.1,2.2c0.1,1.1,0.2,2.2,0,3.2c-0.1,0.1-0.1,0.2-0.1,0.3
		c-0.8,0-1.4,0.7-1.4,1.5s0.6,1.4,1.3,1.5c0,0.4,0,0.7,0,1.1c0.1,0.6,0.1,1.1,0.1,1.7v5.6c0,0.8,0.7,1.5,1.5,1.5
		c0.8,0,1.5-0.7,1.5-1.5v-5.6c0-0.6-0.1-1.2-0.1-1.8c0-0.4,0-0.7,0-1h2.1c0.8,0,1.5-0.7,1.5-1.5S188.2,43.4,187.4,43.4z"/>
	<path class="st0" d="M249.1,43.2c1.2,0.9,3,1.4,4.7,1.4c0.7,0,1.3,0,1.8-0.1c1.7-0.4,2.9-1.4,3.6-2.8c0.7-1.5,0.8-4.3-0.2-6.5
		c-0.8-1.7-2.2-2.9-4-3.3c-3.3-0.8-6,1.5-7.2,4C246.5,38.7,247,41.7,249.1,43.2z M250.4,37.1c0.6-1.3,1.9-2.5,3.3-2.5
		c0.2,0,0.4,0.1,0.6,0c0.9,0.2,1.6,0.8,2,1.7c0.7,1.5,0.5,3.4,0.2,4c-0.2,0.6-0.8,1-1.6,1.2c-1.5,0.4-3.2-0.1-4.1-0.7
		C249.6,39.9,249.9,38.3,250.4,37.1z"/>
	<path class="st0" d="M262.1,48.3h-12.6c-0.8,0-1.5,0.7-1.5,1.5c0,0.8,0.7,1.5,1.5,1.5h12.6c0.2,0,0.5,0,0.8,0c0.1,1.1,0,3-0.3,4.3
		c-0.1,0.8,0.4,1.5,1.2,1.7c0.1,0,0.2,0,0.3,0c0.6,0,1.3-0.5,1.4-1.2c0.3-1.3,0.6-4.1,0.2-5.9C265.2,48.3,263,48.3,262.1,48.3z"/>
	<path class="st0" d="M293.4,41.5h-2c-1.7,0-3.5,0-5.2,0c-0.6,0-1.2,0-1.7-0.2v-1.6c1.1-0.4,2.3-0.4,3.7-0.3c0.9,0,1.9,0.1,2.8,0
		c0.8-0.1,1.4-0.8,1.3-1.6c-0.1-0.8-0.8-1.4-1.6-1.3c-0.7,0.1-1.5,0-2.3,0c-1.2,0-2.5-0.1-3.8,0.2c-0.1-0.7-0.7-1.2-1.4-1.2
		c-0.7,0-1.2,0.5-1.4,1.1c-0.6-0.1-1.2-0.1-1.7-0.1c-0.2,0-0.5,0-0.8,0c-0.7,0-0.9-0.1-0.9-0.1s-0.1-0.2-0.1-1V35c0-0.3,0-0.6,0-1
		c0.6-0.1,1-0.2,1.4-0.2h11.1c0.8,0,1.5-0.7,1.5-1.5c0-0.8-0.7-1.5-1.5-1.5h-11.1c-0.8,0-1.5,0.1-2.1,0.3c-1,0.3-2.3,1-2.2,3
		c0,0.3,0,0.5,0,0.8v0.4c0,2.6,1.2,3.9,3.8,4c0.4,0,0.7,0,1.1,0c0.7,0,1.2,0,1.6,0.1v1.7c-1.6,0.4-3.3,0.3-5.1,0.2
		c-1.3-0.1-2.6-0.1-4,0c-0.8,0.1-1.4,0.8-1.3,1.6c0.1,0.8,0.8,1.4,1.6,1.3c1.1-0.1,2.3-0.1,3.6,0c0.7,0.1,1.5,0.1,2.3,0.1
		c1.4,0,2.9-0.1,4-0.3c0.1,0,0.2,0.1,0.3,0.1c0.9,0.3,1.8,0.4,2.9,0.4c1.7,0,3.5,0,5.2,0h2c0.8,0,1.5-0.7,1.5-1.5
		C294.9,42.2,294.2,41.5,293.4,41.5z"/>
	<path class="st0" d="M291.6,54.1h-3.9c-3.3,0-6.5,0-9.7,0c-0.6,0-0.9,0-0.9,0s0-0.1,0-0.4c0-0.5,0-0.7,0-0.7c0.1,0,0.4-0.1,1-0.1
		c1.8,0,3.7,0,5.5,0h3.6c1.4,0,3,0,4.6-1.2c0.4-0.2,0.6-0.7,0.6-1.1V48c0-0.5-0.2-1-0.5-1.3c-0.9-0.8-2.4-0.9-5.4-0.9
		c-2.7,0-5,0-7.5,0h-3.3c-0.8,0-1.5,0.7-1.5,1.5c0,0.8,0.7,1.5,1.5,1.5h3.3c2.5,0,4.8,0,7.5,0c1.4,0,2.4,0,3,0.1v1
		c-0.6,0.2-1.3,0.2-2.2,0.2h-3.7c-1.8,0-3.7,0-5.5,0c-1,0.1-2.2,0.2-3,1c-0.7,0.8-0.8,1.9-0.8,2.8c0.1,3,2.3,3.4,3.9,3.4
		c1.9,0,3.9,0,5.8,0c1.3,0,2.6,0,3.7-0.2h3.9c0.8,0,1.5-0.7,1.5-1.5S292.4,54.1,291.6,54.1z"/>
	<path class="st0" d="M178,31.9h-11.3c-0.8,0-1.5,0.7-1.5,1.5s0.7,1.5,1.5,1.5H178c0.8,0,1.4-0.7,1.5-1.5
		C179.5,32.6,178.8,31.9,178,31.9z"/>
	<path class="st0" d="M267.8,38.7c0.8,0,1.5-0.7,1.5-1.5s-0.7-1.5-1.5-1.5h-2.1c0-0.3,0-0.7,0-1c-0.1-0.9-0.1-1.7-0.1-2.5
		s-0.7-1.5-1.5-1.5s-1.5,0.7-1.5,1.5c0,0.9,0.1,1.7,0.1,2.6c0,0.3,0,0.6,0,0.9c-0.7,0.1-1.3,0.8-1.3,1.5c0,0.8,0.6,1.4,1.3,1.5
		c0,0.2,0,0.5,0,0.8c-0.7,0-1.3,0.7-1.3,1.4c0,0.8,0.6,1.4,1.3,1.5c0,1.2,0,2.4-0.1,3.3c-0.1,0.8,0.5,1.5,1.3,1.6h0.1
		c0.7,0,1.4-0.5,1.6-1.2c0.1-1,0.1-2.3,0.1-3.6h2.1c0.8,0,1.5-0.7,1.5-1.5c0-0.8-0.7-1.5-1.5-1.5h-2.1c0-0.3,0-0.5,0-0.8H267.8z"/>
	<path class="st0" d="M199.7,45c0.7,0,1.5,0,2.4,0h2.4c0.8,0,1.5-0.7,1.5-1.5s-0.7-1.5-1.5-1.5h-2.4c-1.7,0-3.5,0-5.2,0
		c-0.6,0-1.2-0.2-1.4-0.6s-0.2-0.9,0-1.4c0,0,0.1-0.1,0.7-0.1h1c1.5,0,3,0,4.5,0c3.1-0.1,3.7-1.4,3.7-3.5v-0.2
		c0-1.5-0.1-2.7-0.9-3.5s-2-0.8-3.5-0.8c-1.6,0-3.3,0-4.9,0h-2.2c-0.8,0-1.5,0.7-1.5,1.5s0.7,1.5,1.5,1.5h2.2c1.7,0,3.4,0,5,0
		c0.8-0.1,1.2,0,1.4,0c0.1,0.4,0.1,1.1,0.1,1.4v0.2c0,0.2,0,0.4,0,0.5c-0.1,0.1-0.4,0.1-0.8,0.1c-1.5,0-3,0-4.5,0h-1
		c-1.7,0-2.9,0.7-3.4,1.9c-0.7,1.4-0.6,2.9,0.2,4.1c0.8,1.2,2.2,1.9,3.8,1.9C197.8,45,198.8,45,199.7,45z"/>
	<path class="st0" d="M211.1,52.5h-3.7c-3.1,0-6.1,0-9.2,0c-0.6,0-0.9,0-0.9,0c-0.1-0.1-0.1-0.3-0.1-0.8c0-0.6,0-1.3,0-1.9V49
		c0-0.8-0.7-1.5-1.5-1.5s-1.5,0.7-1.5,1.5v0.8c0,0.7,0,1.4,0,2c0.1,2.7,1.2,3.7,3.9,3.7c1.8,0,3.7,0,5.5,0c1.2,0,2.5,0,3.8,0h3.7
		c0.8,0,1.5-0.7,1.5-1.5C212.6,53.2,211.9,52.5,211.1,52.5z"/>
	<path class="st0" d="M214.2,35.8h-1.6v-0.1c0-1.2,0-2.3-0.1-3.5c-0.1-0.8-0.8-1.5-1.6-1.4c-0.8,0.1-1.5,0.8-1.4,1.6
		c0.1,1.1,0.1,2.2,0.1,3.3h-0.2c-0.8,0-1.5,0.7-1.5,1.5s0.7,1.5,1.5,1.5h0.3c0,0.2,0,0.3,0,0.5c0.1,1.1,0,2.3-0.1,3.6
		c0,1.1-0.1,2.1-0.1,3.1c0,0.8,0.7,1.4,1.5,1.4s1.5-0.7,1.4-1.4c0-0.9,0-1.9,0.1-2.8c0.1-1.3,0.2-2.7,0.1-4c0-0.1,0-0.2,0-0.3h1.6
		c0.8,0,1.5-0.7,1.5-1.5C215.7,36.5,215,35.8,214.2,35.8z"/>
	<path class="st0" d="M177.8,46.7c-1,0-1.8,0-2.6-0.2l2.3-8c0.2-0.8-0.2-1.6-1-1.8s-1.6,0.2-1.8,1l-2.3,8.2c-0.1,0-0.3,0-0.5,0
		c-0.5-1.3-0.8-2.6-1.1-4c-0.2-1-0.5-2.1-0.8-3.3c-0.1-0.4-0.3-1.4-1.5-1.9c-0.7-0.3-1.6,0.1-1.9,0.8c-0.3,0.6,0,1.3,0.5,1.7
		c0,0.1,0.1,0.3,0.1,0.4c0.3,1,0.6,2,0.8,3c0.3,1.3,0.7,2.7,1.1,4c-0.8,0.1-1.5,0.2-2.3,0.2c-0.8,0-1.5,0.6-1.5,1.4s0.6,1.5,1.4,1.5
		c0.1,0,0.2,0,0.3,0c1.3,0,2.5-0.2,3.8-0.7c0.7-0.3,1.8-0.3,2.5,0c1.4,0.6,2.9,0.7,4.5,0.7c0.8,0,1.5-0.7,1.5-1.5
		S178.6,46.7,177.8,46.7z"/>
	<path class="st0" d="M221.4,45c0.4,0,0.8-0.1,1.4-0.6c0.1-0.1,0.2-0.3,0.3-0.4c0.2-0.3,0.2-0.4,0.3-0.4c0.8-0.4,1.6-0.9,2.3-1.4
		c0.4-0.2,0.7-0.4,1-0.6c1.4-0.9,2.4-2,3.4-3.1c0.3-0.3,0.6-0.7,0.9-1c0.2,0.2,0.4,0.5,0.6,0.7c1.5,1.7,3.1,3.5,5.4,4.7
		c0.5,0.2,1,0.5,1.5,0.7l0.6,0.3c0.7,0.4,1.6,0,1.9-0.7c0.4-0.7,0-1.6-0.7-1.9l-0.7-0.3c-0.5-0.2-0.9-0.4-1.4-0.6
		c-1.8-1-3.2-2.5-4.6-4.1c-0.3-0.3-0.6-0.7-0.9-1c0.1,0,0.2-0.1,0.3-0.1c0.5-0.2,1-0.4,1.3-0.4c1.2,0,2.4,0,3.6,0h1.5
		c0.8,0,1.5-0.7,1.5-1.5c0-0.8-0.7-1.5-1.5-1.5h-1.5c-1.1,0-2.3,0.1-3.4,0c-1.1,0-2,0.4-2.7,0.7c-0.4,0.2-0.8,0.4-1,0.4
		s-0.6-0.2-1-0.4c-0.7-0.3-1.6-0.7-2.7-0.7c-1.1,0-2.3,0-3.4,0h-1.5c-0.8,0-1.5,0.7-1.5,1.5c0,0.8,0.7,1.5,1.5,1.5h1.5
		c1.2,0,2.4,0.1,3.6,0c0.4,0,0.8,0.2,1.3,0.4c0.1,0.1,0.2,0.1,0.3,0.2c-0.4,0.4-0.8,0.9-1.2,1.3c-0.9,1-1.7,1.9-2.7,2.5
		c-0.4,0.2-0.7,0.5-1.1,0.7c-0.6,0.4-1.2,0.8-1.8,1.1c-0.9,0.4-1.3,1-1.6,1.4l-0.2,0.2c-0.5,0.7-0.4,1.6,0.2,2.1
		C220.7,44.9,221.1,45,221.4,45z"/>
	<path class="st0" d="M222,20.9h14.3c0.4,0,0.7-0.3,0.8-0.8c0-0.5-0.4-0.8-0.8-0.8H222c-0.5,0-0.8,0.4-0.8,0.8
		C221.2,20.6,221.6,20.9,222,20.9z"/>
	<path class="st0" d="M222.3,17c0.3-0.2,0.6-0.3,0.9-0.4c1-0.3,2.1-0.7,2.8-1.7c1-1.3,1.8-2.7,2.7-4.1c0.1-0.2,0.3-0.5,0.4-0.7
		c1,0.6,1.5,1.7,2,2.7c1,2.1,2.7,3.5,5,4.2c0.1,0,0.1,0,0.2,0c0.3,0,0.6-0.2,0.6-0.4c0.1-0.4-0.1-0.8-0.5-0.9
		c-1.9-0.6-3.2-1.7-4-3.4c-0.5-1.2-1.2-2.6-2.6-3.4c0.1-0.3,0-0.6-0.3-0.8c-0.3-0.2-0.8-0.1-1,0.2c-0.4,0.5-0.7,1.1-1.1,1.7
		c-0.9,1.3-1.8,2.7-2.7,4c-0.4,0.6-1.1,0.9-2,1.2c-0.3,0.1-0.7,0.2-1,0.4c-0.4,0.2-0.6,0.6-0.4,1C221.5,17,221.9,17.2,222.3,17z"/>
	<path class="st0" d="M277.8,21.1c1.4-0.1,2.8-0.1,4.2-0.2c1.1,0,2.1-0.1,3.2-0.1c1.4-0.1,2.9,0,4.3,0.1c1,0,2,0.1,3,0.1
		c0.5,0,0.8-0.3,0.8-0.7c0-0.5-0.3-0.8-0.7-0.8c-1,0-1.9,0-2.9-0.1c-1.2-0.1-2.5-0.1-3.7-0.1v-3.6c0.8,0,1.5-0.1,2.3-0.2
		c2.5-0.4,3.4-1.9,3.2-5c-0.2-2-1.8-3.4-4-3.5c-1,0-2.1,0-3.1,0H283h-0.1c-0.1,0-0.3,0-0.4,0.1c-2.9,1.2-3.8,2.9-3.2,5.8
		c0.3,1.3,1.3,2.3,2.8,2.6c0.7,0.1,1.5,0.3,2.3,0.3v3.7c-0.8,0-1.6,0-2.4,0c-1.4,0-2.8,0-4.2,0.1c-0.4,0-0.7,0.4-0.7,0.8
		S277.4,21.1,277.8,21.1z M282.4,14c-1.5-0.3-1.6-1.1-1.7-1.4c-0.4-2.2,0.1-3.2,2.2-4.1l1.4,0.1c1,0,2,0,3,0c1.4,0,2.4,0.8,2.5,2.1
		c0.3,2.8-0.7,3.2-1.9,3.4C286,14.4,284.1,14.4,282.4,14z"/>
	<path class="st0" d="M261.8,19.3c1.4,0,2.7,0,4,0.1h1.6c0.5,0,0.8-0.4,0.8-0.8c0-0.5-0.4-0.8-0.8-0.8h-1.6c-1.3,0-2.6,0-3.9,0
		c-0.1,0-0.1,0-0.1,0c-0.9,0-0.9-0.2-0.9-0.4c0-2,0-4.1,0-6.1V9.4c1.3-0.3,2.6-0.2,3.9-0.2c0.8,0,1.6,0,2.4,0c0.4,0,0.7-0.4,0.7-0.8
		s-0.3-0.7-0.8-0.7c-0.8,0-1.5,0-2.3,0c-1.6,0-3.2-0.1-4.9,0.4c-0.3,0.1-0.5,0.4-0.5,0.7v2.4c0,2.1,0,4.2,0,6.2
		C259.4,18.3,259.9,19.3,261.8,19.3z"/>
	<path class="st0" d="M242.8,6.7H253c0.4,0,0.8-0.4,0.8-0.8c0-0.5-0.4-0.8-0.8-0.8h-10.2c-0.5,0-0.8,0.4-0.8,0.8
		C242,6.4,242.4,6.7,242.8,6.7z"/>
	<path class="st0" d="M244,10c1.8-0.2,3.7-0.1,5.6-0.1c1.2,0,2.4,0,3.6,0c0.4,0,0.7-0.4,0.7-0.8c-0.1-0.4-0.4-0.7-0.8-0.7
		c-1.2,0-2.4,0-3.6,0c-2.1,0-4.2-0.1-6.4,0.2c-0.4,0.1-0.7,0.3-0.7,0.7l-0.1,0.7c-0.1,0.4-0.1,0.7-0.1,1c-0.1,0.8,0.1,1.4,0.5,1.8
		c0.5,0.5,1.1,0.7,1.9,0.7c2,0,3.9,0,6.1,0h2.3c0.5,0,0.8-0.4,0.8-0.8c0-0.5-0.4-0.8-0.8-0.8h-2.3c-2,0-3.9,0-5.9,0
		c-0.3,0-0.7-0.1-0.8-0.2c-0.1-0.1-0.1-0.4-0.1-0.7c0-0.3,0.1-0.6,0.1-0.9V10z"/>
	<path class="st0" d="M272.5,22.9c0.4,0,0.7-0.3,0.8-0.7V6.6c0-0.5-0.4-0.8-0.8-0.8c-0.5,0-0.8,0.4-0.8,0.8v15.5
		C271.7,22.6,272.1,22.9,272.5,22.9z"/>
	<path class="st0" d="M216.4,21.5c-1.2-0.1-2.5,0-3.7,0c-1.9,0-3.8,0.1-5.5-0.2c-0.1-0.5-0.1-1-0.1-1.6c0-0.3,0-0.7,0-1
		c0-0.4-0.3-0.7-0.8-0.7c-0.4,0-0.7,0.4-0.7,0.8c0,0.2,0,0.5,0,0.8c0,0.8-0.1,1.7,0.4,2.7c0.1,0.2,0.4,0.4,0.6,0.4
		c1.3,0.2,2.6,0.3,4,0.3c0.8,0,1.5,0,2.1,0c1.2,0,2.4,0,3.6,0c0.5,0,0.8-0.3,0.8-0.7C217.1,21.9,216.8,21.5,216.4,21.5z"/>
	<path class="st0" d="M216.5,5.7c-0.5,0-0.8,0.4-0.8,0.8v9c0,0.5,0.4,0.8,0.8,0.8c0.4,0,0.7-0.3,0.8-0.8v-9
		C217.3,6,216.9,5.7,216.5,5.7z"/>
	<path class="st0" d="M193.6,20.2c0.4-0.1,0.6-0.5,0.5-0.9c-0.4-1.3-1.3-2.2-2.3-2.9c-1.3-0.9-2.2-2-2.5-2.9c-0.3-1.2-0.3-2.7,0-4.1
		C190,9,190.7,9,191.5,9c0.4,0,0.7,0,1.1,0c0.4,0,0.7-0.4,0.7-0.8c0-0.4-0.4-0.8-0.8-0.7c-0.3,0-0.6,0-0.9,0c-1-0.1-2-0.1-3,0.5
		c0,0-0.3-0.1-0.4-0.2c-0.4-0.2-0.8-0.4-1.3-0.4s-1,0-1.5,0h-0.7c-0.5,0-0.8,0.4-0.8,0.8c0,0.5,0.4,0.8,0.8,0.8h0.7
		c0.6,0,1.1,0,1.6,0c0,0,0.1,0,0.3,0.2c0.4,1.5,0.4,3.1,0,4.4c-0.3,0.9-1.2,1.9-2.5,2.9c-0.9,0.7-1.9,1.6-2.3,2.9
		c-0.1,0.4,0.1,0.8,0.5,0.9c0.1,0,0.1,0,0.2,0c0.3,0,0.6-0.2,0.7-0.6c0.3-0.9,0.9-1.5,1.8-2.1c0.7-0.5,1.9-1.5,2.6-2.7
		c0.7,1.2,1.9,2.2,2.6,2.7c0.9,0.6,1.5,1.2,1.8,2.1C192.8,20.1,193.2,20.3,193.6,20.2z"/>
	<path class="st0" d="M249.8,21.3c0,0.5,0.4,0.8,0.8,0.8c0.4,0,0.7-0.3,0.8-0.8v-4.1h3.7c0.5,0,0.8-0.4,0.8-0.8
		c0-0.5-0.4-0.8-0.8-0.8h-3.7v-0.1c0-0.5-0.4-0.8-0.8-0.8c-0.5,0-0.8,0.4-0.8,0.8v0.1h-3.5v-0.1c0-0.5-0.4-0.8-0.8-0.8
		c-0.5,0-0.8,0.4-0.8,0.8v0.1H241c-0.5,0-0.8,0.4-0.8,0.8c0,0.5,0.4,0.8,0.8,0.8h3.7v4.1c0,0.5,0.4,0.8,0.8,0.8
		c0.5,0,0.8-0.4,0.8-0.8v-4.1h3.5V21.3z"/>
	<path class="st0" d="M168.6,19.3c1.3,0,2.6,0,3.9,0.1h1.6c0.5,0,0.8-0.4,0.8-0.8c0-0.5-0.4-0.8-0.8-0.8h-1.6c-1.3,0-2.6,0-3.9,0
		c-1,0-0.9-0.2-0.9-0.4c0-2,0-4.1,0-6.1V9.4c1.3-0.3,2.6-0.2,3.9-0.2c0.8,0,1.6,0,2.4,0c0.4,0,0.7-0.4,0.7-0.8s-0.3-0.7-0.8-0.7
		c-0.8,0-1.5,0-2.3,0c-1.6,0-3.2-0.1-4.9,0.4c-0.3,0.1-0.5,0.4-0.5,0.7v2.4c0,2.1,0,4.2,0,6.2C166.2,18.3,166.7,19.3,168.6,19.3z"/>
	<path class="st0" d="M195.7,11.2h0.6c0.1,1.1,0.1,2.1,0,3.2c-0.2,1.8-0.1,3.6-0.1,5.4c0,0.8,0,1.5,0,2.3c0,0.5,0.4,0.8,0.8,0.8
		c0.4,0,0.7-0.3,0.7-1s0-1.5,0-2.3c0-1.7-0.1-3.5,0.1-5.2c0.1-1.1,0.1-2.2,0-3.3h2.5c0.5,0,0.8-0.4,0.8-0.8c0-0.5-0.4-0.8-0.8-0.8
		h-2.6c-0.1-1-0.1-1.9,0-2.8c0-0.4-0.3-0.8-0.7-0.8s-0.8,0.3-0.8,0.7c-0.1,1-0.1,2,0,3h-0.5c-0.5,0-0.8,0.4-0.8,0.8
		C194.9,10.9,195.3,11.2,195.7,11.2z"/>
	<path class="st0" d="M179.2,5.8c-0.5,0-0.8,0.4-0.8,0.8v15.5c0,0.5,0.4,0.8,0.8,0.8c0.5,0,0.8-0.3,0.8-0.7V6.6
		C180,6.1,179.6,5.8,179.2,5.8z"/>
	<path class="st0" d="M207.1,14.7c0.3,0,0.6,0,1,0c1,0,2.2-0.2,3-1.1c0.8-1.1,0.7-5.1-0.2-6.1c-1-1.3-2.5-1.4-3.8-1.3
		c-0.1,0-0.1,0-0.1,0c-0.1,0-0.2,0-0.3,0c-1.4,0.5-2.4,1.4-3,2.6c-0.6,1.2-0.6,2.6,0,4C204.4,14.5,206,14.6,207.1,14.7z M205,9.3
		c0.3-0.8,1-1.4,2-1.8c1.4,0,2.2,0,2.7,0.7c0.4,0.5,0.5,3.6,0.1,4.2c-0.6,0.8-1.4,0.8-2.9,0.7c-1-0.1-1.6-0.3-1.9-1
		C204.6,11.1,204.6,10.1,205,9.3z"/>
</g>
</svg>
