<?xml version="1.0" encoding="utf-8"?>
<!-- Generator: Adobe Illustrator 26.3.1, SVG Export Plug-In . SVG Version: 6.00 Build 0)  -->
<svg version="1.1" id="레이어_1" xmlns="http://www.w3.org/2000/svg" xmlns:xlink="http://www.w3.org/1999/xlink" x="0px"
	 y="0px" viewBox="0 0 158.2 105.9" style="enable-background:new 0 0 158.2 105.9;" xml:space="preserve">
<style type="text/css">
	.st0{fill:#FFFFFF;}
</style>
<path class="st0" d="M152.5,38.5c0,0-8.7-16.3-38.2-26.4c-22.8-7.8-45.8-12.7-70-12C18.9,0.8-1.2,16.1,0.1,38.2
	c0.8,13.3,8.5,23.4,8.5,23.4c8.5,13.7,21.9,20.7,35.2,28.1c21.9,12.2,45.5,16.1,70.1,16.2C149.9,106,168.4,67.5,152.5,38.5z
	 M96.3,38.5c0.4-1.3,2.3-0.8,2.2,0.3c0.1-0.1,0.2-0.2,0.2-0.3c0.4-0.5,1.1-0.6,1.5-0.3c0.7-0.3,1.5-0.4,2.4-0.1
	c0.5,0.2,0.9,0.6,0.8,1.1c-0.2,2.2-0.9,4.3-2.2,6.2c-0.4,0.6-0.9,1.3-1.5,1.9c-0.2,0.5-0.4,1.1-0.7,1.6c-0.9,1.9-2.5,4.1-4.8,3.8
	c-0.6-0.1-1.2-0.5-1.1-1.2c0.2-1.1,0.4-2.1,0.7-3.1c-0.3-0.5-0.5-1.1-0.5-1.8c0-1.4,0.8-2.8,1.6-3.9C95.4,41.2,95.9,39.9,96.3,38.5z
	 M72.4,31c0.4-1.3,2.3-0.8,2.2,0.3c0.1-0.1,0.2-0.2,0.2-0.3c0.4-0.5,1.1-0.6,1.5-0.3c0.7-0.3,1.5-0.4,2.4-0.1
	c0.5,0.2,0.9,0.6,0.8,1.1c-0.2,2.2-0.9,4.3-2.2,6.2c-0.4,0.6-0.9,1.3-1.5,1.9c-0.2,0.5-0.4,1.1-0.7,1.6c-0.9,1.9-2.5,4.1-4.8,3.8
	c-0.6-0.1-1.2-0.5-1.1-1.2c0.2-1.1,0.4-2.1,0.7-3.1c-0.3-0.5-0.5-1.1-0.5-1.8c0-1.4,0.8-2.8,1.6-3.9C71.4,33.8,71.9,32.4,72.4,31z
	 M104.6,74.5c-2.3-0.3-4.3-1.5-5.8-3.3c0,0,0,0.1-0.1,0.1c-7.9,6.3-18.5,6.5-27.7,3.2c-8.6-3.2-17.6-8.9-21.1-17.7
	c-2,1-4.1,1.7-6.3,2c-0.6,0.1-1.2-0.2-1.4-0.9c-0.1-0.6,0.2-1.3,0.9-1.4c4.6-0.7,8.7-2.9,11.8-6.3c0.4-0.5,1.2-0.4,1.6,0.1
	c0.4,0.5,0.3,1.2-0.1,1.6c-1.3,1.5-2.9,2.7-4.5,3.8c3.2,8.2,11.3,13.4,19.2,16.5c8.5,3.3,18.6,3.5,26-2.5c0.2-0.1,0.4-0.2,0.5-0.2
	c-0.9-2.1-1.1-4.4-0.5-6.6c0.2-0.6,0.9-0.9,1.4-0.8c0.6,0.2,0.9,0.8,0.8,1.4c-0.5,1.8-0.3,3.9,0.7,5.6c1,1.7,2.7,2.9,4.6,3.1
	c0.6,0.1,1.1,0.5,1.1,1.2C105.8,73.9,105.3,74.6,104.6,74.5z"/>
</svg>
