<?xml version="1.0" encoding="utf-8"?>
<!-- Generator: Adobe Illustrator 26.3.1, SVG Export Plug-In . SVG Version: 6.00 Build 0)  -->
<svg version="1.1" id="레이어_1" xmlns="http://www.w3.org/2000/svg" xmlns:xlink="http://www.w3.org/1999/xlink" x="0px"
	 y="0px" viewBox="0 0 148.9 137.6" style="enable-background:new 0 0 148.9 137.6;" xml:space="preserve">
<style type="text/css">
	.st0{fill:#1CA9B1;}
	.st1{fill:#FFFFFF;}
</style>
<path class="st0" d="M106.7,7.9C71.7-4.9,27.9-5.4,10,31.4c0,0,0,0,0,0.1l-2.3,5.2c-9.7,23.6-10.1,45-1.3,61.9
	c9.5,18.2,29.6,31.1,58.2,37.3c5.3,1.2,10.7,1.7,16.1,1.7c15.7,0,31.2-4.8,43.6-13.8c14-10.2,22.6-24.5,24.2-40.4
	C152,47.6,136,18.6,106.7,7.9"/>
<path class="st1" d="M124.3,73.9c0-0.1-0.1-0.1-0.1-0.2c-3.7-4.7-8.5-6.7-14.5-5.7c-0.9,0.2-1.7,1.3-1.7,2.2c0.2,3.9-1.5,7.7-4,10.7
	c-2.8,3.3-6.6,4.5-10.8,5.3c-6.3,1.2-12.6,0-18.9-0.6C60,84,48.7,76.3,43.1,62.8c-1.1-2.7-5.6-1.5-4.5,1.2c3.4,8.1,8.5,15.3,16.1,20
	c6.2,3.8,13.3,5.6,20.5,6.2c8.4,0.8,16.2,1.8,24.4-0.9c1.8-0.6,3.4-1.5,4.9-2.6c0.7,0.8,1.5,1.6,2.1,2.2c1.8,1.7,3.6,3.1,5.8,4.1
	c3.6,1.6,8.1,1.9,11-1.3c1.7-1.8,3-4.6,3.6-7c0.9-3.8-0.3-7.5-2.5-10.5C124.4,74.1,124.3,74,124.3,73.9 M107.7,84.1
	c0,0.1,0,0.1,0,0.1C107.7,84.2,107.7,84.1,107.7,84.1 M122.7,82.9c0,0.1,0,0.3-0.1,0.4c0,0.2-0.1,0.4-0.2,0.6
	c-0.1,0.2-0.1,0.5-0.2,0.7c0,0.1-0.1,0.3-0.2,0.4c-0.3,0.7-0.7,1.4-1.1,2.1c-0.6,1.1-1.3,2-2.4,2.3c-1.2,0.3-2.3,0.2-3.6-0.3
	c-1-0.4-2-0.9-2.9-1.5c0,0-0.1,0-0.1-0.1c-0.1-0.1-0.2-0.2-0.3-0.2c-0.4-0.3-0.7-0.6-1.1-0.9c-0.8-0.7-1.6-1.5-2.3-2.3
	c-0.2-0.2-0.3-0.3-0.4-0.5c0.3,0.3,0.1,0.1-0.1-0.1c1.4-1.6,2.5-3.4,3.3-5.4c0.3,0.4,0.6,0.8,0.9,1.3c0.3,0.5,0.6,1,0.9,1.5
	c0.1,0.3,0.3,0.6,0.4,0.8c0.1,0.1,0.1,0.3,0.2,0.4c0,0,0,0.1,0.1,0.1c0,0,0,0.1,0,0.1c0.2,0.4,0.3,0.7,0.7,0.9
	c0.3,0.2,0.8,0.3,1.2,0.2c0.7-0.2,1.4-1.1,1.1-1.9c-1-2.5-2.5-4.9-4.3-6.9c0.2-0.8,0.3-1.6,0.3-2.4c3.3,0,5.9,1.7,8,4.4
	c0.8,1.1,1.5,2.2,1.8,3.5c0.1,0.3,0.1,0.5,0.2,0.8c0,0,0,0.2,0,0.3c0,0.1,0,0.1,0,0.1C122.7,81.9,122.7,82.4,122.7,82.9"/>
<path class="st1" d="M55.6,51.9c3.4,0.4,6.3-2.1,6.6-5.6c0.4-3.6-2-6.6-5.3-7c-3.4-0.4-6.4,2.1-6.7,5.7
	C49.8,48.5,52.1,51.5,55.6,51.9"/>
<path class="st1" d="M89.6,54.3c3.8,0.8,6.6,2.1,9.4,4.2c4.3,3,8.1-3.4,4.5-6.7c-3-2.9-8.6-6.5-13.4-7.5c-3.3-0.7-5.7,0.8-6.2,3.8
	C83.4,52,86.3,54.9,89.6,54.3"/>
</svg>
