<?xml version="1.0" encoding="utf-8"?>
<!-- Generator: Adobe Illustrator 26.3.1, SVG Export Plug-In . SVG Version: 6.00 Build 0)  -->
<svg version="1.1" id="레이어_1" xmlns="http://www.w3.org/2000/svg" xmlns:xlink="http://www.w3.org/1999/xlink" x="0px"
	 y="0px" viewBox="0 0 141.2 135" style="enable-background:new 0 0 141.2 135;" xml:space="preserve">
<style type="text/css">
	.st0{fill:#F2C81F;}
	.st1{fill:#FFFFFF;}
</style>
<path class="st0" d="M85.4,10.9c-36.5-14-51.6-15.6-69.3,1.9C1.2,27.6-3.4,44.7,2.5,63.5c12.2,39,56.4,65.3,76.3,70.1
	c15.7,3.8,33.4-0.6,46-11.4c0.3-0.2,0.5-0.5,0.8-0.7c11.4-10.3,16.9-24.3,15.4-39.7c-0.8-8.6-2.1-16.7-9.5-29
	C113.8,23.9,86.6,11.4,85.4,10.9"/>
<path class="st1" d="M69.3,30.3c-6.2,2.7-12.4,5.3-18.5,8.2c0.6-4.2,1.2-8.4,1.6-12.6c0.4-3.4-5-3.7-5.4-0.3
	C46.5,30.8,45.8,36,45,41.2c-4.8,2.4-9.5,4.9-14.1,7.6c-2.9,1.8-0.6,6.6,2.4,4.8c3.5-2.1,7-4,10.6-5.8c-0.6,3.4-1.3,6.9-2.1,10.3
	c-0.3,1.4,0.3,2.9,1.7,3.4c1.3,0.4,3.1-0.3,3.4-1.7c1.1-4.9,2-9.9,2.9-14.8c7.2-3.5,14.5-6.6,21.9-9.8
	C74.8,33.7,72.4,28.9,69.3,30.3"/>
<path class="st1" d="M77.9,47.8c-2.9,0.5-4.5,3.1-6.1,5.2c-3.9,5.3-7.6,10.6-11.3,16c-1.6,2.4,1.2,4.7,3.3,3.9
	c4.3,2,8.8,3.8,13.6,3.4c2.9-0.2,5.2-1.6,6.8-4c1.3-2,2.2-4.4,2.7-6.7c1-4.8,1.2-11.3-2.3-15.2C82.9,48.5,80.4,47.4,77.9,47.8
	 M81.9,57.4c0.3,1.9,0.2,3.8,0,5.6c-0.2,1.7-0.8,3.4-1.5,5c-0.8,1.7-1.7,2.7-3.7,2.9c-3.2,0.2-6.4-1-9.4-2.3
	c1.9-2.7,3.7-5.4,5.6-8.1c1.3-1.8,2.7-3.7,4-5.5c0.7-1,1.5-2.5,2.9-1.8C81.3,54,81.7,55.9,81.9,57.4"/>
</svg>
