<?xml version="1.0" encoding="utf-8"?>
<!-- Generator: Adobe Illustrator 26.3.1, SVG Export Plug-In . SVG Version: 6.00 Build 0)  -->
<svg version="1.1" id="레이어_1" xmlns="http://www.w3.org/2000/svg" xmlns:xlink="http://www.w3.org/1999/xlink" x="0px"
	 y="0px" viewBox="0 0 62.3 65.8" style="enable-background:new 0 0 62.3 65.8;" xml:space="preserve">
<style type="text/css">
	.st0{fill:#F2C81F;stroke:#F2C81F;stroke-width:4.5;stroke-miterlimit:10;}
</style>
<g>
	<path class="st0" d="M8,57.9c-0.1-0.1-0.2-0.2-0.3-0.3c-4.7-5-6.5-12.5-4.8-19.3c2.1-8.5,13.4-28,29.9-34.4
		c8.1-3.1,15.5-1.7,21.8,4.2l0,0c7.5,6.9,6.7,13.8,0.8,29.4c-0.3,0.6-5.6,12.5-17.9,20.8c-5.3,3.6-8.7,4.4-12.4,5
		C18.4,64.3,12.4,62.5,8,57.9z M53.4,11.2c-0.3-0.3-0.6-0.6-0.9-0.9l0,0C47,5.2,40.7,4,33.7,6.6c-15.4,6-26,24.2-27.9,32.1
		c-1.5,5.9,0.1,12.3,4.2,16.7c3.7,4.1,9,5.8,14.8,4.8c3.4-0.6,6.4-1.3,11.1-4.5C47.4,48,52.6,36.6,52.6,36.5
		C58.3,21.7,58.5,16.5,53.4,11.2z M53.6,9.2L53.6,9.2L53.6,9.2z"/>
</g>
</svg>
