<?xml version="1.0" encoding="utf-8"?>
<!-- Generator: Adobe Illustrator 26.3.1, SVG Export Plug-In . SVG Version: 6.00 Build 0)  -->
<svg version="1.1" id="레이어_1" xmlns="http://www.w3.org/2000/svg" xmlns:xlink="http://www.w3.org/1999/xlink" x="0px"
	 y="0px" viewBox="0 0 98.7 90.5" style="enable-background:new 0 0 98.7 90.5;" xml:space="preserve">
<style type="text/css">
	.st0{fill:#FFFFFF;stroke:#FFFFFF;stroke-width:2;stroke-miterlimit:10;}
</style>
<path class="st0" d="M49.9,1.3C26.1,3.9,0.8,16.1,1,42.5c0,0,0,0,0,0l0.1,3.6c1.2,16.3,7,28.8,16.9,36C28.8,89.8,44,91.5,62.2,87
	c3.4-0.8,6.7-2.1,9.8-3.6c9-4.5,16.6-11.7,21.1-20.4c5.2-9.8,6-20.5,2.4-30.1C87.3,11.1,69.8-1,49.9,1.3 M92.8,33.8
	c3.3,8.8,2.5,18.6-2.2,27.7c-5.8,11-16.6,19.4-29,22.5c-17.4,4.3-31.8,2.8-41.7-4.4C10.5,73,5.2,61.6,4.1,46l-0.1-3.6
	C3.7,18,27.7,6.7,50.3,4.2C68.8,2.1,85.1,13.5,92.8,33.8"/>
</svg>
