<?xml version="1.0" encoding="utf-8"?>
<!-- Generator: Adobe Illustrator 26.3.1, SVG Export Plug-In . SVG Version: 6.00 Build 0)  -->
<svg version="1.1" id="레이어_1" xmlns="http://www.w3.org/2000/svg" xmlns:xlink="http://www.w3.org/1999/xlink" x="0px"
	 y="0px" viewBox="0 0 46 39" style="enable-background:new 0 0 46 39;" xml:space="preserve">
<style type="text/css">
	.st0{fill:#FFFFFF;stroke:#FFFFFF;stroke-width:3;stroke-miterlimit:10;}
</style>
<g>
	<path class="st0" d="M42.1,32.5c-0.1,0.1-0.1,0.1-0.2,0.2c-2.8,3.4-7.4,5.2-12.1,4.7c-5.8-0.7-20-6.5-26.1-16.8
		c-3-5.1-3-10,0.2-14.6l0,0c3.7-5.4,8.2-5.5,19.2-2.8c0.4,0.1,8.8,2.7,15.8,10c3,3.2,3.9,5.4,4.7,7.7C45.1,25.2,44.6,29.3,42.1,32.5
		z M6.1,6.6C5.9,6.8,5.8,7,5.6,7.2l0,0c-2.7,4-2.8,8.2-0.2,12.6c5.7,9.6,18.9,15,24.4,15.7c4.1,0.5,8.1-1.1,10.5-4
		c2.2-2.7,2.7-6.4,1.4-10.1c-0.8-2.2-1.6-4.1-4.3-6.9C31,7.6,22.9,5.1,22.8,5.1C12.4,2.6,9,2.8,6.1,6.6z M4.8,6.6L4.8,6.6L4.8,6.6z"
		/>
</g>
</svg>
