<?xml version="1.0" encoding="utf-8"?>
<!-- Generator: Adobe Illustrator 26.3.1, SVG Export Plug-In . SVG Version: 6.00 Build 0)  -->
<svg version="1.1" id="레이어_1" xmlns="http://www.w3.org/2000/svg" xmlns:xlink="http://www.w3.org/1999/xlink" x="0px"
	 y="0px" viewBox="0 0 158.3 124.4" style="enable-background:new 0 0 158.3 124.4;" xml:space="preserve">
<style type="text/css">
	.st0{fill:#FFFFFF;}
</style>
<path class="st0" d="M87.7,74.7c0,0-7.8-7.7-26.3-8.2C47.1,66,33.2,67.3,19.6,72c-14.3,4.9-23,17.1-18.4,29.4c2.8,7.4,9,11.8,9,11.8
	c7.2,6.3,16.1,7.8,24.9,9.7c14.6,3,28.6,1.1,42.6-3.2C98.2,113.4,101.9,88.3,87.7,74.7z M55.9,84.6c0-0.8,1.2-0.9,1.3-0.2
	c0-0.1,0-0.2,0.1-0.2c0.1-0.4,0.5-0.5,0.8-0.5c0.4-0.3,0.8-0.5,1.3-0.5c0.3,0,0.6,0.2,0.7,0.5c0.3,1.3,0.2,2.6-0.2,3.9
	c-0.1,0.4-0.3,0.9-0.5,1.3c0,0.3,0,0.7-0.1,1c-0.2,1.2-0.7,2.7-2.1,3c-0.3,0.1-0.8-0.1-0.8-0.5c-0.1-0.6-0.1-1.3-0.2-1.9
	c-0.3-0.2-0.5-0.5-0.6-0.9c-0.2-0.8-0.1-1.7,0.2-2.5C55.9,86.3,55.9,85.4,55.9,84.6z M41,84.6c0-0.8,1.2-0.9,1.3-0.2
	c0-0.1,0-0.2,0.1-0.2c0.1-0.4,0.5-0.5,0.8-0.5c0.4-0.3,0.8-0.5,1.3-0.5c0.3,0,0.6,0.2,0.7,0.5c0.3,1.3,0.2,2.6-0.2,3.9
	c-0.1,0.4-0.3,0.9-0.5,1.3c0,0.3,0,0.7-0.1,1c-0.2,1.2-0.7,2.7-2.1,3c-0.3,0.1-0.8-0.1-0.8-0.5c-0.1-0.6-0.1-1.3-0.2-1.9
	c-0.3-0.2-0.5-0.5-0.6-0.9c-0.2-0.8-0.1-1.7,0.2-2.5C40.9,86.3,41,85.4,41,84.6z M68.6,103.5c-1.4,0.2-2.7-0.1-3.8-0.9
	c0,0,0,0.1,0,0.1c-3.4,5-9.3,7-15.1,6.7c-5.5-0.3-11.5-1.9-15.1-6.3c-1,0.9-2,1.7-3.2,2.3c-0.3,0.2-0.7,0.1-0.9-0.2
	c-0.2-0.3-0.1-0.8,0.2-0.9c2.5-1.2,4.4-3.2,5.6-5.7c0.2-0.3,0.6-0.4,0.9-0.2c0.3,0.2,0.4,0.6,0.2,0.9c-0.5,1.1-1.2,2-1.9,2.9
	c3.3,4,8.6,5.6,13.7,6c5.5,0.4,11.2-1.3,14.5-6c0.1-0.1,0.2-0.2,0.3-0.2c-0.9-1-1.5-2.3-1.5-3.7c0-0.4,0.3-0.7,0.7-0.7
	c0.4,0,0.7,0.3,0.7,0.7c0,1.1,0.5,2.3,1.4,3.1c0.8,0.8,2.1,1.1,3.1,1c0.4-0.1,0.7,0.1,0.8,0.5C69.2,103,69,103.5,68.6,103.5z"/>
<g>
	<g>
		<path class="st0" d="M65.4,58.1c-2.3,0-4.6-0.2-6.9-0.7c-12.2-2.7-20.8-8.2-24.9-15.8c-3.8-7.2-3.6-16,0.6-26.2l1-2.2
			c0,0,0,0,0-0.1C42.9-2.3,61.5-2.1,76.4,3.4c12.4,4.5,19.1,16.8,17.6,32C93.4,42,89.8,48,83.9,52.2C78.6,56.1,72,58.1,65.4,58.1z
			 M38.5,14.7l-1,2.1c-3.7,9.1-4,16.8-0.7,23.1c3.5,6.7,11.3,11.5,22.4,14c7.8,1.7,16.3,0,22.5-4.5c5-3.7,8.1-8.7,8.7-14.3
			C91.8,21.5,86,10.7,75.2,6.8C61.8,1.9,45.1,1.4,38.5,14.7z"/>
	</g>
	<g>
		<path class="st0" d="M82.6,33.9c-1.6-2.2-3.8-3.1-6.5-2.6c-0.4,0.1-0.8,0.6-0.8,1c0.1,1.8-0.7,3.6-1.8,4.9c-1.2,1.5-2.9,2-4.7,2.4
			c-2.8,0.5-5.7,0-8.6-0.3c-6.4-0.7-11.4-4.3-13.9-10.4c-0.5-1.2-2.5-0.7-2,0.6c3,7.3,8.7,11.2,16.3,12c3.9,0.4,7.5,0.9,11.2-0.5
			c3.3-1.2,5.8-5,5.6-8.6c-0.3,0.3-0.5,0.7-0.8,1c1.9-0.3,3.3,0.6,4.5,2.1C82,36.4,83.4,34.9,82.6,33.9"/>
	</g>
	<g>
		<path class="st0" d="M73.3,38.1c-0.3,1,0.8,2.1,1.5,2.7c0.8,0.8,1.6,1.4,2.6,1.9c1.6,0.7,3.6,0.9,4.9-0.6c0.7-0.8,1.4-2.1,1.6-3.2
			c0.4-1.7-0.1-3.4-1.1-4.8c-0.3-0.5-0.9-0.7-1.4-0.4c-0.4,0.3-0.7,1-0.4,1.4c0.4,0.5,0.7,1.1,0.9,1.7c0,0.1,0.1,0.3,0.1,0.4
			c0,0,0,0.2,0,0.1c0-0.1,0,0.1,0,0.1c0,0.3,0,0.5,0,0.8c0-0.2,0,0,0,0.1c0,0.1,0,0.2-0.1,0.3c0,0.1-0.1,0.2-0.1,0.3
			c0,0.1-0.1,0.3,0,0.1c-0.2,0.3-0.3,0.7-0.5,1c-0.3,0.5-0.6,0.9-1.1,1.1c-0.5,0.2-1,0.1-1.6-0.1c-0.5-0.2-0.9-0.4-1.3-0.7
			c0,0-0.2-0.2-0.1-0.1c0.1,0.1-0.1-0.1-0.1-0.1c-0.2-0.1-0.3-0.3-0.5-0.4c-0.4-0.3-0.7-0.7-1-1c-0.1-0.1-0.1-0.2-0.2-0.2
			c0.1,0.2,0,0,0-0.1c0-0.1-0.1-0.3-0.1-0.1c0,0.2,0,0.1,0,0c0,0.1,0,0.4,0,0.4c0.2-0.5-0.2-1.2-0.7-1.3
			C74,37.2,73.4,37.6,73.3,38.1"/>
	</g>
	<g>
		<path class="st0" d="M76.3,35.3c0.1,0.1,0.2,0.2,0.3,0.3c0,0.1,0.1,0.1,0.1,0.2c0.1,0.1-0.1-0.1,0,0c0,0,0,0.1,0.1,0.1
			c0.2,0.2,0.3,0.5,0.5,0.7c0.1,0.2,0.3,0.5,0.4,0.7c0.1,0.1,0.1,0.3,0.2,0.4c0,0.1,0.1,0.1,0.1,0.2c0,0,0.1,0.1,0,0
			c0-0.1,0,0,0,0.1c0.1,0.2,0.1,0.3,0.3,0.4c0.1,0.1,0.4,0.1,0.5,0.1c0.3-0.1,0.6-0.5,0.5-0.9c-0.5-1.2-1.1-2.3-2-3.2
			c-0.2-0.3-0.7-0.3-1,0C76,34.6,76,35,76.3,35.3"/>
	</g>
	<g>
		<path class="st0" d="M64.6,22.2c0.2-1.4,1.3-2.1,2.8-1.8c2.2,0.5,4.7,2.1,6,3.4c1.6,1.5-0.1,4.5-2,3.1c-1.3-0.9-2.5-1.5-4.2-1.9
			C65.6,25.3,64.4,23.9,64.6,22.2 M56.5,21.3c-0.2,1.6-1.5,2.7-3,2.6c-1.5-0.2-2.6-1.5-2.4-3.1c0.2-1.6,1.5-2.8,3-2.6
			C55.7,18.3,56.7,19.7,56.5,21.3"/>
	</g>
</g>
<g>
	<g>
		<path class="st0" d="M131.7,106.7c-0.2,0-0.4,0-0.5,0c-8.5-0.2-16.7-4.6-21.3-11.5c-5.8-8.6-13.4-33.6-4.9-52.5
			c4.2-9.3,11.8-14.3,22.5-14.8l0,0c12.6-0.7,18,5.5,26.8,23c0.3,0.7,6.3,14.7,3.1,31.6c-1.4,7.2-3.6,10.8-6.2,14.3
			C146.5,103.2,139.6,106.7,131.7,106.7z M129.3,31.4c-0.5,0-1.1,0-1.6,0l0,0c-9.3,0.5-15.8,4.7-19.4,12.7c-8,17.6-0.8,41,4.6,49.1
			c4,6,11.1,9.8,18.5,10c6.8,0.2,12.9-2.9,17.1-8.5c2.4-3.3,4.4-6.3,5.6-12.9c2.9-15.8-2.8-29.3-2.8-29.4
			C142.7,35.8,138.3,31.4,129.3,31.4z M127.5,29.6L127.5,29.6L127.5,29.6z"/>
	</g>
	<g>
		<path class="st0" d="M119.8,49c7.3,1.4,14.3,3.8,21.3,6.2c1.7,0.6,2.4-2.1,0.7-2.7c-7-2.4-14-4.8-21.3-6.2
			C118.8,46,118,48.7,119.8,49"/>
	</g>
	<g>
		<path class="st0" d="M134.9,43c-4.3,3.8-8.7,7.4-13.3,10.7c-0.6,0.4-0.9,1.2-0.5,1.9c0.4,0.6,1.3,0.9,1.9,0.5
			c4.8-3.5,9.5-7.2,13.9-11.1C138.2,43.8,136.2,41.8,134.9,43"/>
	</g>
	<g>
		<path class="st0" d="M125.7,67.1c2.3-0.6,4.7-1.1,7-1.6c1.2-0.3,2.3-0.5,3.5-0.7c0.6-0.1,1.4-0.5,1.7,0.3c0.3,0.8-0.2,1.7-0.6,2.4
			c-0.5,0.8-1.2,1.5-2,2.2c-0.7,0.6-1.5,1.1-2.3,1.4c-0.9,0.4-1.6,0.5-2.4-0.2c-1.7-1.4-2.6-3.6-3.4-5.6c-0.3-0.7-1.3-0.8-1.9-0.5
			c-0.7,0.4-0.8,1.2-0.5,1.9c1,2.4,2.1,4.8,4.3,6.4c1.2,0.9,2.6,1.2,4,0.8c1.2-0.3,2.4-0.9,3.4-1.7c2.1-1.5,4.4-4,4.4-6.7
			c0-1.3-0.6-2.6-1.7-3.3c-1.3-0.8-2.8-0.4-4.2-0.1c-3.3,0.7-6.6,1.4-9.9,2.2C123.2,64.9,124,67.5,125.7,67.1"/>
	</g>
</g>
</svg>
